<svg width="1000" height="1000" viewBox="0 0 1000 1000" fill="none" xmlns="http://www.w3.org/2000/svg">
<rect width="1000" height="1000" fill="white"/>
<path d="M486.191 386.798C485.758 386.645 485.328 386.517 484.904 386.415C484.429 386.299 484.013 386.141 483.658 385.942C462.865 374.24 440.683 371.117 417.111 376.574" stroke="#5F2829" stroke-width="2"/>
<path d="M417.111 376.574C401.694 380.392 388.069 387.586 376.238 398.156C360.682 412.048 350.869 429.297 346.799 449.902C345.802 454.941 345.242 459.395 345.117 463.265C344.937 468.796 345.052 475.343 345.463 482.906" stroke="#551D1E" stroke-width="2"/>
<path d="M434.727 557.995V562.595C434.727 562.832 434.845 562.962 435.08 562.985L437.177 563.201C437.436 563.229 437.583 563.37 437.62 563.625C437.897 565.56 438.026 566.966 438.008 567.843C437.833 575.606 437.761 583.394 437.793 591.207C437.8 592.564 438.133 593.928 437.918 595.265C437.766 596.23 437.745 597.211 437.856 598.209C438.209 601.466 438.001 605.071 437.793 608.363C437.792 608.392 437.783 608.421 437.767 608.445C437.751 608.47 437.729 608.49 437.703 608.503C437.677 608.517 437.648 608.523 437.619 608.522C437.59 608.52 437.562 608.511 437.537 608.495C437.445 608.43 437.35 608.426 437.254 608.481C437.05 608.602 437.004 608.769 437.115 608.982C437.332 609.4 437.653 609.579 438.077 609.518C438.391 609.477 438.467 609.593 438.306 609.866L437.634 611.022C437.523 611.207 437.496 611.407 437.551 611.62L437.828 612.678C437.854 612.78 437.849 612.888 437.811 612.986C437.774 613.085 437.707 613.169 437.62 613.228L437.032 613.625C436.714 613.838 436.709 614.058 437.018 614.286C437.23 614.443 437.33 614.682 437.316 615.003" stroke="#5F0000" stroke-width="2"/>
<path d="M416.986 420.622C417.06 420.367 416.963 420.228 416.696 420.205C416.576 420.195 416.571 420.168 416.682 420.121C416.765 420.089 416.792 420.028 416.765 419.94C416.183 418.005 415.74 415.996 415.436 413.913C415.293 412.925 415.26 411.948 415.339 410.983C415.533 408.749 415.553 406.57 415.145 404.364C414.831 402.675 414.667 401.441 414.654 400.662C414.584 397.08 414.573 393.53 414.619 390.013C414.633 388.797 414.748 387.7 414.965 386.721C415.159 385.844 415.81 385.19 415.796 384.306C415.782 383.29 416.024 382.392 416.169 381.404C416.322 380.311 416.945 379.406 416.557 378.286C416.469 378.031 416.532 377.817 416.744 377.646C417.095 377.372 417.217 377.015 417.111 376.574" stroke="#454446" stroke-width="2"/>
<path d="M486.191 386.798C485.757 386.645 485.328 386.517 484.903 386.415C484.428 386.299 484.013 386.141 483.658 385.942C462.864 374.24 440.682 371.117 417.111 376.574C401.694 380.393 388.069 387.587 376.237 398.156C360.682 412.048 350.869 429.297 346.799 449.902C345.802 454.941 345.241 459.396 345.117 463.265C344.937 468.796 345.052 475.343 345.463 482.906C343.769 499.312 347.154 514.304 355.617 527.88C372.278 554.613 404.146 566.73 434.727 557.995V562.595C434.727 562.832 434.845 562.962 435.08 562.985L437.177 563.201C437.436 563.229 437.583 563.37 437.62 563.625C437.897 565.56 438.026 566.966 438.008 567.843C437.833 575.606 437.761 583.394 437.793 591.207C437.8 592.564 438.133 593.928 437.918 595.265C437.766 596.23 437.745 597.211 437.856 598.209C438.209 601.466 438.001 605.071 437.793 608.363C437.792 608.392 437.783 608.421 437.767 608.445C437.751 608.47 437.729 608.49 437.703 608.504C437.677 608.517 437.648 608.523 437.619 608.522C437.59 608.52 437.562 608.511 437.537 608.495C437.445 608.43 437.35 608.426 437.253 608.481C437.05 608.602 437.004 608.769 437.115 608.982C437.332 609.4 437.653 609.579 438.077 609.518C438.391 609.477 438.467 609.593 438.306 609.866L437.634 611.022C437.523 611.207 437.496 611.407 437.551 611.62L437.828 612.678C437.854 612.78 437.848 612.888 437.811 612.986C437.774 613.085 437.707 613.169 437.62 613.228L437.032 613.625C436.714 613.838 436.709 614.058 437.018 614.286C437.23 614.444 437.33 614.683 437.316 615.003C397.944 621.879 359.237 610.541 329.965 583.837C316.204 571.286 305.713 556.202 298.491 538.584C277.269 486.845 292.781 427.652 335.98 392.401C360.691 372.238 391.895 362.773 423.341 364.77C446.09 366.218 467.04 373.56 486.191 386.798Z" fill="#6F0000"/>
<path d="M486.191 386.798C498.623 395.377 509.425 405.636 518.599 417.574C526.079 427.308 532.773 437.537 538.679 448.26C538.836 448.547 538.751 448.691 538.423 448.691H471.094C470.864 448.691 470.677 448.601 470.534 448.42C456.93 431.136 439.081 421.87 416.986 420.622C417.06 420.367 416.963 420.228 416.696 420.205C416.576 420.195 416.571 420.168 416.682 420.121C416.765 420.089 416.792 420.028 416.765 419.94C416.183 418.005 415.74 415.996 415.436 413.913C415.293 412.925 415.26 411.948 415.339 410.983C415.533 408.749 415.553 406.571 415.145 404.364C414.831 402.675 414.667 401.441 414.654 400.662C414.584 397.08 414.573 393.53 414.619 390.013C414.633 388.797 414.748 387.7 414.965 386.721C415.159 385.844 415.81 385.19 415.796 384.306C415.782 383.29 416.024 382.392 416.169 381.404C416.322 380.311 416.945 379.406 416.557 378.286C416.469 378.031 416.532 377.817 416.744 377.646C417.095 377.372 417.217 377.015 417.111 376.574C440.682 371.117 462.864 374.24 483.658 385.942C484.013 386.141 484.428 386.299 484.903 386.415C485.328 386.517 485.757 386.645 486.191 386.798Z" fill="#4F4F51"/>
<path d="M417.111 376.574C417.217 377.015 417.095 377.372 416.744 377.646C416.532 377.817 416.47 378.031 416.557 378.286C416.945 379.406 416.322 380.311 416.17 381.404C416.024 382.392 415.782 383.29 415.796 384.306C415.81 385.19 415.159 385.844 414.965 386.721C414.748 387.7 414.633 388.797 414.619 390.013C414.573 393.53 414.585 397.08 414.654 400.662C414.668 401.441 414.831 402.675 415.145 404.364C415.554 406.57 415.533 408.749 415.339 410.983C415.261 411.948 415.293 412.925 415.436 413.913C415.741 415.996 416.184 418.005 416.765 419.94C416.793 420.028 416.765 420.089 416.682 420.121C416.571 420.168 416.576 420.195 416.696 420.205C416.963 420.228 417.06 420.367 416.987 420.622C399.594 420.409 384.431 425.48 371.496 435.836C356.688 447.682 348.01 463.372 345.463 482.906C345.052 475.343 344.937 468.796 345.117 463.265C345.242 459.395 345.802 454.941 346.799 449.902C350.869 429.297 360.682 412.048 376.238 398.156C388.069 387.586 401.694 380.392 417.111 376.574Z" fill="#3A393B"/>
<path d="M510.75 497.5L496.581 473.614C496.561 473.583 496.535 473.556 496.502 473.538C496.47 473.52 496.434 473.511 496.397 473.511C496.36 473.511 496.324 473.52 496.292 473.538C496.26 473.556 496.233 473.583 496.214 473.614L466.817 523.53C466.683 523.757 466.484 523.871 466.221 523.871L453.983 523.878C453.933 523.878 453.884 523.864 453.841 523.839C453.798 523.813 453.762 523.777 453.738 523.733C453.713 523.689 453.701 523.64 453.701 523.589C453.702 523.539 453.716 523.49 453.741 523.447C466.297 502.47 478.831 481.523 491.341 460.606C492.497 458.679 494.151 457.161 496.484 457.05C498.851 456.939 500.694 457.983 502.014 460.182C514.621 481.201 527.291 502.324 540.022 523.551C540.042 523.583 540.053 523.62 540.054 523.657C540.055 523.695 540.046 523.732 540.027 523.765C540.009 523.798 539.982 523.825 539.949 523.844C539.917 523.862 539.88 523.872 539.842 523.871L526.746 523.878C526.488 523.878 526.291 523.764 526.158 523.537L516.695 507.578C516.58 507.383 516.409 507.286 516.183 507.286L485.928 507.293C485.879 507.292 485.831 507.278 485.789 507.253C485.747 507.228 485.712 507.192 485.687 507.15C485.663 507.107 485.65 507.058 485.649 507.009C485.649 506.96 485.662 506.911 485.686 506.868L490.649 498.356C490.732 498.211 490.853 498.091 490.999 498.009C491.145 497.927 491.311 497.886 491.479 497.89C497.681 498.02 504.04 498.008 510.556 497.855C510.819 497.846 510.883 497.728 510.75 497.5Z" fill="#802427"/>
<path d="M557.936 476.266L557.95 523.419C557.95 523.716 557.8 523.864 557.5 523.864L547.415 523.871C547.124 523.871 546.979 523.725 546.979 523.432C547.011 504.595 547.013 484.687 546.985 463.71C546.979 457.746 553.042 454.844 557.299 459.082C572.486 474.204 587.926 489.58 603.62 505.212C603.651 505.244 603.691 505.266 603.735 505.275C603.778 505.284 603.824 505.28 603.865 505.262C603.906 505.245 603.941 505.216 603.965 505.178C603.989 505.141 604.002 505.096 604.001 505.052L603.994 457.725C603.994 457.507 604.102 457.398 604.319 457.398L614.591 457.377C614.854 457.372 614.986 457.502 614.986 457.767C614.995 477.895 614.993 498.083 614.979 518.331C614.979 524.553 608.541 526.78 604.34 522.542C589.578 507.657 574.248 492.174 558.351 476.092C558.074 475.814 557.936 475.872 557.936 476.266Z" fill="#802427"/>
<path d="M384.26 505.274C379.608 495.085 379.982 481.451 386.281 471.686C392.255 462.437 402.43 457.92 413.387 457.913C424.979 457.908 436.568 457.908 448.155 457.913C448.465 457.913 448.619 458.071 448.619 458.386L448.626 469.153C448.626 469.234 448.594 469.312 448.537 469.37C448.48 469.427 448.402 469.459 448.322 469.459C437.348 469.51 426.107 469.513 414.598 469.466C411.331 469.452 408.65 469.789 406.555 470.475C387.79 476.642 388.011 505.288 406.694 511.406C408.862 512.116 412.434 512.448 417.409 512.401C428.174 512.299 438.433 512.29 448.183 512.373C448.478 512.373 448.626 512.522 448.626 512.819V523.474C448.626 523.748 448.49 523.885 448.218 523.885C437.064 523.852 425.934 523.859 414.827 523.906C410.757 523.924 407.448 523.579 404.901 522.869C395.279 520.191 388.399 514.327 384.26 505.274Z" fill="#802427"/>
<path d="M637.911 457.92H627.044C626.864 457.92 626.718 458.066 626.718 458.247V523.544C626.718 523.725 626.864 523.871 627.044 523.871H637.911C638.091 523.871 638.236 523.725 638.236 523.544V458.247C638.236 458.066 638.091 457.92 637.911 457.92Z" fill="#4F4F51"/>
<path d="M670.88 469.501H646.577C646.495 469.501 646.415 469.468 646.357 469.409C646.298 469.351 646.266 469.271 646.266 469.188L646.273 458.212C646.273 458.129 646.305 458.05 646.364 457.991C646.422 457.932 646.501 457.899 646.584 457.899L707.337 457.906C707.42 457.906 707.499 457.939 707.557 457.998C707.616 458.057 707.649 458.136 707.649 458.219L707.656 469.188C707.656 469.229 707.647 469.27 707.632 469.308C707.616 469.346 707.593 469.38 707.564 469.409C707.535 469.439 707.501 469.462 707.463 469.477C707.425 469.493 707.385 469.501 707.344 469.501L683.055 469.487C682.973 469.487 682.893 469.52 682.835 469.579C682.777 469.638 682.744 469.717 682.744 469.8V523.572C682.744 523.655 682.711 523.735 682.653 523.793C682.594 523.852 682.515 523.885 682.432 523.885L671.496 523.864C671.413 523.864 671.334 523.831 671.275 523.772C671.217 523.714 671.184 523.634 671.184 523.551L671.191 469.814C671.191 469.773 671.183 469.732 671.168 469.694C671.152 469.656 671.129 469.622 671.1 469.593C671.071 469.564 671.037 469.541 670.999 469.525C670.961 469.509 670.921 469.501 670.88 469.501Z" fill="#4F4F51"/>
<path d="M437.316 615.003C437.33 614.683 437.23 614.444 437.018 614.286C436.709 614.058 436.714 613.838 437.032 613.625L437.62 613.228C437.707 613.169 437.774 613.085 437.811 612.986C437.849 612.888 437.854 612.78 437.828 612.678L437.551 611.62C437.496 611.407 437.523 611.207 437.634 611.022L438.306 609.866C438.467 609.593 438.391 609.477 438.077 609.518C437.653 609.579 437.332 609.4 437.115 608.982C437.004 608.769 437.05 608.602 437.254 608.481C437.35 608.426 437.445 608.43 437.537 608.495C437.562 608.511 437.59 608.52 437.619 608.522C437.648 608.523 437.677 608.517 437.703 608.504C437.729 608.49 437.751 608.47 437.767 608.445C437.783 608.421 437.792 608.392 437.793 608.363C438.001 605.071 438.209 601.466 437.856 598.209C437.745 597.211 437.766 596.23 437.918 595.265C438.133 593.928 437.8 592.564 437.793 591.207C437.761 583.394 437.833 575.606 438.008 567.843C438.026 566.966 437.897 565.56 437.62 563.625C437.583 563.37 437.436 563.229 437.177 563.201L435.08 562.985C434.845 562.962 434.727 562.832 434.727 562.595V557.995C447.38 554.121 458.077 547.321 466.817 537.596C466.906 537.495 467.015 537.415 467.137 537.359C467.259 537.304 467.39 537.276 467.523 537.276L533.938 537.262C533.967 537.262 533.995 537.267 534.022 537.279C534.048 537.29 534.072 537.307 534.092 537.327C534.112 537.348 534.128 537.373 534.138 537.4C534.149 537.427 534.153 537.456 534.153 537.484C534.148 537.642 534.104 537.788 534.021 537.923C524.995 552.636 514.871 566.138 503.648 578.429C499.975 582.452 495.949 586.4 491.569 590.274C488.247 593.216 484.527 595.954 480.411 598.487C467.163 606.635 452.798 612.14 437.316 615.003Z" fill="#4E0000"/>
</svg>
