<?xml version="1.0" standalone="no"?>
<!DOCTYPE svg PUBLIC "-//W3C//DTD SVG 20010904//EN"
 "http://www.w3.org/TR/2001/REC-SVG-20010904/DTD/svg10.dtd">
<svg version="1.0" xmlns="http://www.w3.org/2000/svg"
 width="512.000000pt" height="512.000000pt" viewBox="0 0 512.000000 512.000000"
 preserveAspectRatio="xMidYMid meet">
<metadata>
Created by potrace 1.16, written by Peter Selinger 2001-2019
</metadata>
<g transform="translate(0.000000,512.000000) scale(0.100000,-0.100000)"
fill="#000000" stroke="none">
<path d="M1165 5079 c-479 -64 -901 -448 -1080 -981 -58 -175 -76 -281 -82
-484 -6 -198 3 -288 42 -444 111 -437 434 -786 841 -908 341 -103 774 -85
1213 49 35 10 66 19 70 19 3 0 6 -90 6 -201 0 -199 0 -201 24 -220 34 -28 73
-23 154 18 39 21 74 39 77 41 3 1 6 -53 7 -120 4 -344 165 -559 485 -648 138
-38 218 -43 683 -44 429 -1 455 -2 552 -24 457 -101 749 -325 793 -610 15 -94
1 -189 -45 -302 -43 -104 -45 -141 -9 -169 57 -45 107 -16 158 92 48 100 66
179 66 288 0 236 -117 455 -338 630 -125 100 -245 158 -421 204 -194 51 -289
59 -781 60 -471 1 -515 4 -635 45 -90 31 -158 75 -223 144 -97 104 -151 239
-174 433 l-12 103 71 73 c93 95 173 220 173 268 0 59 -14 69 -156 100 -71 16
-139 29 -151 29 -31 0 -29 10 12 50 117 114 234 353 276 565 23 117 19 416 -9
550 -81 404 -301 788 -604 1056 -192 169 -397 276 -624 324 -90 19 -270 26
-359 14z m325 -191 c53 -13 49 -13 -135 -18 -164 -4 -190 -7 -193 -21 -3 -14
26 -17 260 -21 l263 -5 70 -36 c147 -76 151 -73 -88 -69 -197 3 -510 -16 -537
-33 -33 -21 11 -25 253 -25 145 0 339 -3 430 -7 l166 -6 68 -63 68 -63 -210
-1 c-264 -1 -663 -24 -678 -39 -6 -6 -7 -12 -2 -12 6 -1 220 0 476 1 l466 2
47 -53 c58 -66 182 -247 174 -254 -3 -3 -183 -1 -399 4 -852 22 -999 24 -999
13 0 -15 47 -20 355 -37 149 -8 306 -17 350 -21 43 -3 224 -6 402 -5 l323 0
22 -42 c26 -49 77 -161 75 -163 -1 0 -110 5 -242 12 -246 13 -717 28 -1207 40
-254 6 -278 6 -278 -10 0 -9 7 -16 15 -16 8 0 178 -9 377 -20 540 -29 1008
-50 1144 -50 67 0 142 -3 168 -6 45 -7 46 -7 63 -60 9 -30 14 -56 12 -58 -3
-3 -79 -8 -169 -11 -283 -10 -350 -15 -350 -30 0 -17 251 -30 417 -21 l122 7
7 -38 c3 -21 9 -54 14 -74 l7 -36 -186 -7 c-102 -3 -321 -9 -486 -12 -294 -7
-350 -13 -326 -37 17 -17 465 -21 754 -7 132 6 241 10 243 7 2 -2 7 -38 10
-80 l7 -77 -184 0 c-202 0 -663 -19 -1198 -50 -191 -11 -349 -20 -353 -20 -5
0 -8 -4 -8 -10 0 -19 963 -2 1465 25 143 8 262 12 264 9 5 -5 -17 -146 -26
-170 -3 -8 -36 -14 -96 -18 -368 -22 -486 -31 -745 -56 -161 -15 -295 -30
-299 -34 -3 -3 -4 -9 -1 -12 11 -11 796 28 1051 52 46 5 67 3 67 -5 0 -6 -12
-40 -26 -75 l-27 -65 -71 -5 c-39 -3 -172 -8 -296 -10 -275 -7 -979 -35 -1037
-42 -24 -3 -43 -10 -43 -16 0 -12 657 -5 1134 13 148 5 271 7 274 4 9 -9 -71
-117 -92 -125 -12 -5 -100 -16 -196 -25 -495 -45 -715 -64 -815 -70 -166 -9
-205 -15 -205 -31 0 -11 12 -13 53 -9 28 2 140 7 247 10 278 8 626 34 830 61
l45 6 -25 -27 c-14 -15 -53 -49 -87 -76 l-61 -49 -301 -43 c-165 -24 -304 -47
-308 -50 -3 -4 -4 -9 -1 -13 3 -3 124 9 269 25 144 17 273 31 286 31 32 0 29
-27 -4 -34 -419 -84 -835 -90 -1101 -15 -683 192 -1013 926 -743 1655 93 254
275 507 470 655 95 72 252 146 358 170 101 22 297 21 393 -3z m982 -2544 c51
-9 94 -17 95 -17 1 -1 -4 -9 -11 -18 -14 -20 -134 -59 -180 -59 -18 0 -37 -5
-44 -12 -9 -9 -12 -4 -12 23 0 18 -5 52 -10 73 -12 52 -7 58 35 40 19 -7 76
-21 127 -30z"/>
<path d="M1285 4324 c-170 -6 -316 -12 -322 -13 -7 -1 -13 -8 -13 -17 0 -16
46 -16 583 -10 320 3 615 9 655 12 62 5 72 9 72 25 0 18 -13 19 -332 17 -183
0 -472 -7 -643 -14z"/>
</g>
</svg>
