<?xml version="1.0" standalone="no"?>
<!DOCTYPE svg PUBLIC "-//W3C//DTD SVG 20010904//EN"
 "http://www.w3.org/TR/2001/REC-SVG-20010904/DTD/svg10.dtd">
<svg version="1.0" xmlns="http://www.w3.org/2000/svg"
 width="512.000000pt" height="512.000000pt" viewBox="0 0 512.000000 512.000000"
 preserveAspectRatio="xMidYMid meet">

<g transform="translate(0.000000,512.000000) scale(0.100000,-0.100000)"
fill="#000000" stroke="none">
<path d="M2495 5036 c-36 -16 -50 -42 -76 -150 -39 -164 -35 -344 12 -566 39
-181 49 -280 49 -498 0 -151 -5 -241 -16 -311 -9 -55 -14 -110 -10 -125 16
-64 95 -88 140 -43 28 28 47 122 75 372 59 515 52 915 -19 1175 -31 114 -40
131 -76 146 -40 17 -41 17 -79 0z"/>
<path d="M2400 2904 c-45 -19 -97 -69 -121 -116 -24 -47 -43 -178 -34 -238 26
-179 196 -279 350 -206 96 45 145 128 153 257 8 141 -46 246 -152 295 -60 28
-143 31 -196 8z"/>
<path d="M69 2767 c-66 -44 -86 -124 -49 -205 15 -34 29 -47 65 -63 43 -19 49
-19 207 -5 219 20 331 25 828 36 234 6 486 15 560 20 151 12 173 22 173 81 0
54 -25 65 -165 73 -68 4 -289 20 -493 36 -523 42 -673 50 -896 50 -187 0 -198
-1 -230 -23z"/>
<path d="M4815 2743 c-22 -2 -189 -19 -370 -38 -537 -56 -710 -68 -910 -62
-108 3 -215 12 -268 22 -73 14 -92 15 -118 4 -38 -15 -69 -63 -69 -104 0 -40
34 -93 68 -106 19 -8 257 -10 812 -7 432 3 838 2 902 -1 146 -7 174 -2 215 42
57 63 56 152 -2 215 l-33 37 -94 1 c-51 1 -111 0 -133 -3z"/>
<path d="M2388 1913 c-49 -31 -53 -50 -40 -201 32 -349 44 -1142 22 -1391 -10
-107 -9 -117 11 -157 53 -110 197 -117 266 -14 17 24 23 47 23 89 0 63 -42
519 -66 708 -45 366 -60 631 -47 784 5 54 5 111 0 128 -15 61 -109 91 -169 54z"/>
</g>
</svg>
