<?xml version="1.0" standalone="no"?>
<!DOCTYPE svg PUBLIC "-//W3C//DTD SVG 20010904//EN"
 "http://www.w3.org/TR/2001/REC-SVG-20010904/DTD/svg10.dtd">
<svg version="1.0" xmlns="http://www.w3.org/2000/svg"
 width="512.000000pt" height="512.000000pt" viewBox="0 0 512.000000 512.000000"
 preserveAspectRatio="xMidYMid meet">
<metadata>
Created by potrace 1.16, written by Peter Selinger 2001-2019
</metadata>
<g transform="translate(0.000000,512.000000) scale(0.100000,-0.100000)"
fill="#000000" stroke="none">
<path d="M1343 5091 c-40 -29 -73 -89 -73 -132 0 -41 33 -95 179 -289 165
-219 228 -319 267 -425 35 -94 68 -125 134 -125 41 0 55 5 84 31 39 34 53 79
38 119 -6 14 -39 64 -74 110 -79 105 -135 214 -228 440 -119 288 -128 300
-233 300 -44 0 -62 -5 -94 -29z"/>
<path d="M3695 5036 c-53 -23 -342 -372 -396 -478 -96 -188 -72 -348 54 -348
53 0 99 22 144 68 53 54 81 116 103 223 23 111 61 195 146 320 82 121 92 162
44 202 -35 30 -51 32 -95 13z"/>
<path d="M2542 5023 c-21 -19 -51 -106 -97 -293 -33 -130 -29 -178 19 -226 87
-87 244 -55 278 58 14 47 5 110 -43 308 -23 98 -35 130 -55 148 -30 26 -74 29
-102 5z"/>
<path d="M787 4226 c-52 -19 -83 -50 -103 -102 -32 -84 -1 -165 78 -202 77
-36 316 -112 352 -112 25 0 40 7 55 26 44 56 29 84 -144 274 -110 121 -160
145 -238 116z"/>
<path d="M4304 4191 c-48 -12 -86 -43 -156 -129 -121 -145 -158 -202 -158
-238 0 -45 29 -74 76 -74 40 0 307 107 366 147 50 34 71 82 66 148 -9 103 -97
169 -194 146z"/>
<path d="M2524 3759 c-11 -6 -47 -54 -80 -107 -147 -243 -392 -601 -600 -878
-260 -347 -435 -673 -554 -1034 -152 -459 -188 -954 -109 -1475 31 -207 38
-227 81 -248 32 -16 44 -17 72 -7 63 20 61 7 62 424 0 391 6 466 50 706 l16
89 36 -16 c90 -40 358 -124 472 -147 556 -114 1155 -51 1637 170 96 44 152 64
157 56 15 -25 26 -365 24 -762 -3 -414 -1 -458 14 -486 20 -36 35 -44 87 -44
26 0 44 7 59 23 l22 23 3 595 c1 460 -1 613 -12 679 -7 47 -13 105 -12 130 1
45 -11 80 -76 220 -111 239 -468 860 -796 1385 -191 305 -430 680 -445 698
-17 19 -74 22 -108 6z m296 -750 c124 -187 226 -344 228 -349 4 -12 -171 -99
-263 -133 -196 -70 -408 -58 -630 36 l-54 23 155 239 c85 132 194 304 241 383
47 78 89 142 92 142 3 0 107 -153 231 -341z m-732 -614 c224 -131 477 -180
739 -141 136 21 266 57 345 97 l58 29 23 -37 c178 -284 457 -772 457 -799 0
-6 -35 -31 -77 -57 -414 -249 -962 -320 -1488 -193 -162 39 -280 83 -443 162
-141 68 -153 76 -147 97 47 155 207 485 355 729 52 87 96 158 98 158 2 0 38
-20 80 -45z"/>
<path d="M780 3257 c-30 -7 -86 -27 -125 -44 -103 -46 -175 -57 -327 -50 -128
6 -131 5 -155 -19 -34 -34 -30 -108 7 -135 68 -51 564 -90 697 -56 139 36 209
95 200 168 -7 53 -32 85 -90 113 -65 31 -136 39 -207 23z"/>
<path d="M4485 3144 c-71 -14 -186 -28 -254 -33 -112 -7 -126 -9 -142 -30 -25
-30 -25 -92 0 -122 17 -22 32 -24 212 -40 114 -10 231 -26 284 -39 118 -30
206 -30 265 0 85 42 120 90 120 163 0 60 -34 91 -120 111 -91 22 -213 18 -365
-10z"/>
<path d="M4280 2378 c-66 -45 -95 -114 -80 -185 11 -49 69 -100 146 -131 277
-111 292 -114 334 -72 28 28 25 70 -8 118 -61 91 -196 253 -227 272 -46 28
-122 27 -165 -2z"/>
<path d="M616 2214 c-144 -62 -227 -110 -252 -149 -66 -101 14 -249 135 -249
85 1 116 27 261 219 75 99 90 126 90 156 0 44 -34 79 -76 78 -16 0 -87 -25
-158 -55z"/>
</g>
</svg>
