<?xml version="1.0" standalone="no"?>
<!DOCTYPE svg PUBLIC "-//W3C//DTD SVG 20010904//EN"
 "http://www.w3.org/TR/2001/REC-SVG-20010904/DTD/svg10.dtd">
<svg version="1.0" xmlns="http://www.w3.org/2000/svg"
 width="512.000000pt" height="512.000000pt" viewBox="0 0 512.000000 512.000000"
 preserveAspectRatio="xMidYMid meet">

<g transform="translate(0.000000,512.000000) scale(0.100000,-0.100000)"
fill="#000000" stroke="none">
<path d="M2320 5035 c-147 -40 -283 -139 -358 -258 -67 -109 -87 -172 -157
-497 -43 -203 -50 -550 -21 -985 18 -273 23 -499 17 -785 -7 -307 8 -343 374
-910 83 -129 173 -271 199 -315 58 -97 83 -117 151 -123 89 -7 114 11 204 157
307 494 449 836 496 1194 31 239 16 407 -57 652 -26 85 -61 125 -110 125 -43
0 -75 -22 -83 -58 -3 -16 1 -68 10 -118 10 -53 16 -145 16 -227 0 -142 -1
-153 -28 -300 -14 -81 -17 -88 -42 -93 -14 -3 -35 -7 -46 -10 -11 -2 -112 -9
-225 -14 -189 -9 -513 0 -575 16 -22 5 -22 10 -28 227 -3 140 -17 336 -37 532
-27 253 -33 356 -34 560 l-1 250 80 6 c44 4 229 12 410 18 551 18 591 21 614
42 54 50 90 308 61 438 -47 214 -207 381 -440 461 -86 29 -306 38 -390 15z
m321 -181 c137 -40 244 -130 302 -251 30 -64 32 -74 32 -183 0 -134 -8 -174
-33 -166 -37 11 -576 86 -732 101 -91 10 -166 18 -168 20 -6 6 20 142 38 192
36 103 121 207 205 251 99 51 251 67 356 36z m233 -2606 c-55 -147 -309 -623
-333 -623 -5 0 -36 41 -69 90 -33 50 -103 148 -155 220 -97 130 -170 245 -162
253 5 5 660 99 702 101 l33 1 -16 -42z"/>
<path d="M4550 3000 c-293 -106 -324 -592 -47 -731 23 -12 44 -23 46 -25 5 -4
-17 -94 -55 -226 -203 -699 -757 -1208 -1472 -1353 l-80 -16 -46 49 c-176 188
-498 183 -639 -9 -30 -41 -31 -41 -80 -35 -27 4 -101 20 -163 36 -622 161
-1114 573 -1343 1124 -43 103 -96 272 -106 341 -6 39 -6 40 40 64 188 98 275
362 184 555 -105 225 -467 258 -662 62 -150 -149 -168 -385 -41 -526 52 -57
85 -79 162 -106 l66 -23 17 -120 c44 -304 124 -505 310 -782 165 -245 412
-484 644 -622 l70 -42 -120 -7 c-66 -4 -185 -14 -265 -23 -206 -21 -192 -24
-213 34 -45 127 -228 226 -383 206 -196 -24 -349 -230 -331 -446 8 -91 39
-158 98 -214 78 -73 125 -90 249 -90 101 0 108 1 168 34 65 36 133 102 159
157 l15 31 322 7 c459 9 1052 25 1113 30 l53 5 36 -54 c89 -134 246 -216 412
-214 89 1 150 20 216 66 50 35 103 117 112 175 l6 36 82 6 c44 3 187 10 316
16 129 6 312 15 405 20 94 5 248 10 343 10 156 0 173 -2 178 -17 41 -123 126
-223 234 -276 60 -30 72 -32 170 -32 95 0 111 3 162 28 84 41 152 107 190 185
30 60 33 76 33 152 0 77 -4 92 -37 162 -46 97 -115 168 -202 209 -124 58 -239
59 -353 4 -68 -34 -157 -130 -180 -195 l-18 -50 -325 0 c-179 0 -369 3 -423 7
l-98 6 93 49 c570 301 983 827 1128 1439 18 74 34 139 36 146 1 6 18 14 36 18
94 21 189 98 232 188 106 227 20 502 -180 577 -73 27 -198 27 -274 0z"/>
</g>
</svg>
