<?xml version="1.0" standalone="no"?>
<!DOCTYPE svg PUBLIC "-//W3C//DTD SVG 20010904//EN"
 "http://www.w3.org/TR/2001/REC-SVG-20010904/DTD/svg10.dtd">
<svg version="1.0" xmlns="http://www.w3.org/2000/svg"
 width="512.000000pt" height="512.000000pt" viewBox="0 0 512.000000 512.000000"
 preserveAspectRatio="xMidYMid meet">

<g transform="translate(0.000000,512.000000) scale(0.100000,-0.100000)"
fill="#000000" stroke="none">
<path d="M2370 4599 c-14 -6 -37 -22 -53 -37 -27 -26 -27 -26 -58 -8 -75 44
-193 7 -220 -69 -11 -30 -17 -35 -34 -29 -54 18 -114 16 -153 -6 -38 -22 -82
-82 -82 -113 0 -17 -21 -27 -56 -27 -36 0 -99 -35 -122 -67 -78 -110 -40 -332
67 -396 l29 -17 -33 -83 c-98 -240 -153 -639 -142 -1035 9 -345 41 -445 186
-592 73 -74 100 -94 181 -133 91 -43 199 -77 251 -77 47 0 69 -11 69 -35 0
-22 0 -22 -217 -28 -328 -9 -500 -56 -710 -193 -77 -51 -210 -186 -252 -258
-48 -80 -471 -1051 -471 -1080 0 -13 7 -27 16 -30 9 -3 910 -6 2004 -6 1825 0
1989 1 2001 16 12 14 0 82 -77 468 -115 571 -132 614 -299 781 -104 104 -209
170 -348 223 -166 62 -241 73 -539 79 l-268 5 0 307 0 306 40 94 c23 51 48
125 58 163 13 55 22 72 42 83 42 22 98 87 124 145 78 171 48 407 -65 503 -21
19 -39 42 -39 51 0 26 19 56 35 56 8 0 32 17 54 38 67 64 68 157 3 222 l-37
37 23 33 c47 69 21 177 -52 221 -32 18 -33 22 -29 64 3 24 3 55 -1 69 -10 40
-64 95 -106 107 -32 10 -39 17 -45 45 -7 39 -46 89 -86 109 -32 17 -102 20
-129 5 -15 -8 -22 -4 -40 25 -43 70 -138 94 -209 54 l-38 -21 -39 21 c-41 22
-93 26 -134 10z m83 -758 c84 -41 140 -129 191 -297 37 -125 77 -189 128 -206
8 -3 8 -51 -1 -174 -12 -177 -38 -330 -64 -381 -21 -40 -86 -97 -147 -128
-103 -52 -161 -60 -460 -60 -277 0 -308 3 -454 42 l-59 16 6 226 c10 376 61
678 146 865 l28 63 69 7 c38 4 134 18 214 31 187 31 333 30 403 -4z m759 -476
c85 -122 71 -349 -27 -451 -64 -68 -148 -79 -235 -33 -71 38 -68 24 -51 214
l16 170 50 46 c86 80 123 100 174 97 40 -3 48 -8 73 -43z m-814 -860 c1 -17
-8 -50 -20 -75 -18 -35 -35 -51 -78 -73 -48 -25 -63 -28 -121 -24 -105 7 -193
67 -121 83 79 17 223 68 262 94 55 36 74 34 78 -5z m540 -753 c-105 -211 -432
-280 -588 -123 -55 55 -70 100 -70 205 0 70 2 76 21 76 39 0 177 40 257 74
160 69 271 159 360 294 l37 55 3 -267 c2 -261 2 -269 -20 -314z"/>
<path d="M1765 3468 c-70 -25 -110 -73 -85 -103 17 -20 37 -19 70 5 55 39 135
35 175 -10 24 -27 61 -26 76 2 11 20 8 26 -29 58 -61 55 -138 72 -207 48z"/>
<path d="M2383 3450 c-85 -17 -142 -65 -122 -102 13 -24 40 -23 84 4 48 27
139 29 184 2 35 -20 63 -12 69 20 11 53 -114 96 -215 76z"/>
<path d="M1791 3274 c-40 -50 -13 -154 39 -154 59 0 92 100 50 153 -27 35 -62
35 -89 1z"/>
<path d="M2386 3281 c-42 -47 -23 -144 31 -157 62 -16 102 106 50 154 -29 27
-58 28 -81 3z"/>
<path d="M2002 3037 c-64 -93 -112 -187 -112 -222 0 -15 7 -42 16 -61 29 -62
189 -118 227 -79 37 36 20 54 -67 72 -64 13 -96 35 -96 66 0 24 33 83 102 184
42 61 48 75 38 92 -22 42 -54 26 -108 -52z"/>
<path d="M3030 3242 c-46 -23 -91 -89 -97 -144 -4 -37 -1 -49 22 -76 33 -39
80 -50 123 -28 37 19 52 44 52 84 0 39 -31 78 -54 69 -14 -6 -17 -14 -11 -45
5 -29 2 -42 -10 -52 -23 -19 -65 2 -65 32 0 30 33 83 65 104 21 14 30 14 55 4
62 -26 87 25 26 54 -43 20 -63 20 -106 -2z"/>
</g>
</svg>
