<?xml version="1.0" standalone="no"?>
<!DOCTYPE svg PUBLIC "-//W3C//DTD SVG 20010904//EN"
 "http://www.w3.org/TR/2001/REC-SVG-20010904/DTD/svg10.dtd">
<svg version="1.0" xmlns="http://www.w3.org/2000/svg"
 width="512.000000pt" height="512.000000pt" viewBox="0 0 512.000000 512.000000"
 preserveAspectRatio="xMidYMid meet">
<metadata>
Created by potrace 1.16, written by Peter Selinger 2001-2019
</metadata>
<g transform="translate(0.000000,512.000000) scale(0.100000,-0.100000)"
fill="#000000" stroke="none">
<path d="M4293 4738 c-19 -25 -93 -230 -93 -259 0 -41 39 -66 76 -47 21 10 36
36 70 123 45 113 53 162 32 183 -16 16 -73 15 -85 0z"/>
<path d="M4505 4425 c-66 -41 -126 -84 -134 -95 -30 -45 19 -101 72 -80 12 4
76 42 142 83 110 67 120 76 123 106 2 18 -2 39 -9 47 -24 30 -71 15 -194 -61z"/>
<path d="M3935 4215 c-985 -329 -2459 -765 -3565 -1056 -47 -12 -91 -26 -98
-32 -18 -15 -15 -71 6 -91 11 -9 24 -33 30 -54 11 -35 17 -40 94 -71 222 -90
441 -207 679 -363 l136 -88 83 -243 c102 -298 207 -576 228 -599 35 -40 74
-17 126 76 37 63 155 187 231 241 58 42 170 103 227 124 24 9 36 4 105 -41 43
-28 115 -81 160 -119 88 -72 131 -89 183 -73 23 7 80 81 276 359 1165 1649
1427 2021 1436 2041 16 36 -13 74 -55 73 -17 0 -144 -38 -282 -84z m-290 -261
c-696 -398 -2357 -1304 -2391 -1304 -5 0 -40 25 -79 56 -155 125 -368 253
-548 330 -69 29 -94 44 -81 48 11 3 186 51 389 106 884 242 2007 576 2740 815
55 18 105 33 110 34 6 0 -57 -38 -140 -85z m292 -1 c-63 -88 -251 -354 -577
-818 -177 -253 -435 -618 -573 -812 l-249 -352 -57 48 c-193 166 -466 323
-714 409 l-107 38 42 24 c118 65 507 302 671 408 230 148 386 259 737 522 151
113 331 244 400 292 113 78 447 288 457 288 3 0 -11 -21 -30 -47z m-2080
-1753 c23 -5 65 -20 94 -33 l53 -23 -76 -42 c-91 -50 -206 -140 -268 -209
l-45 -50 -11 161 c-7 89 -9 164 -5 168 12 13 116 37 166 37 28 0 69 -4 92 -9z"/>
<path d="M4377 4152 c-36 -40 -12 -84 53 -97 40 -8 106 -40 115 -55 9 -14 68
-13 83 2 7 7 12 27 12 44 0 26 -8 39 -34 59 -77 59 -197 83 -229 47z"/>
<path d="M3775 1620 c-151 -24 -337 -103 -495 -211 -114 -78 -207 -156 -450
-380 -351 -322 -498 -426 -702 -498 -330 -115 -652 -6 -780 265 -91 193 -73
428 43 566 42 50 49 86 23 112 -27 28 -64 19 -106 -25 -101 -106 -152 -296
-128 -476 33 -253 155 -432 365 -533 118 -57 210 -74 364 -67 147 6 231 27
368 92 186 87 320 188 635 477 248 228 337 302 451 379 180 121 333 177 507
186 233 12 414 -82 571 -297 88 -120 194 -358 270 -604 22 -72 47 -138 56
-148 34 -38 93 -9 93 44 0 32 -79 280 -131 411 -159 399 -364 622 -634 692
-74 20 -240 27 -320 15z"/>
</g>
</svg>
