<?xml version="1.0" standalone="no"?>
<!DOCTYPE svg PUBLIC "-//W3C//DTD SVG 20010904//EN"
 "http://www.w3.org/TR/2001/REC-SVG-20010904/DTD/svg10.dtd">
<svg version="1.0" xmlns="http://www.w3.org/2000/svg"
 width="512.000000pt" height="512.000000pt" viewBox="0 0 512.000000 512.000000"
 preserveAspectRatio="xMidYMid meet">
<metadata>
Created by potrace 1.16, written by Peter Selinger 2001-2019
</metadata>
<g transform="translate(0.000000,512.000000) scale(0.100000,-0.100000)"
fill="#000000" stroke="none">
<path d="M2329 5105 c-278 -44 -558 -157 -819 -330 -453 -301 -849 -791 -1104
-1365 -35 -80 -87 -193 -114 -252 -169 -356 -264 -686 -248 -865 16 -199 123
-284 336 -269 52 3 109 9 125 12 l30 6 -3 -231 c-3 -175 0 -257 13 -341 52
-361 195 -530 490 -579 33 -6 125 -15 205 -22 244 -19 356 -61 422 -157 54
-78 68 -144 68 -316 0 -266 40 -330 234 -374 62 -14 184 -16 981 -17 531 -1
931 3 960 8 114 22 226 99 282 195 60 102 85 268 63 417 -18 122 -29 540 -19
707 11 169 39 297 93 417 20 43 36 91 36 107 0 47 -34 91 -79 105 -79 23 -126
-10 -171 -121 -77 -188 -95 -319 -93 -670 2 -276 9 -390 34 -610 9 -82 9 -118
0 -161 -13 -61 -49 -124 -86 -152 -47 -34 -141 -51 -285 -49 -74 0 -445 2
-825 4 -618 3 -702 5 -802 22 l-113 18 0 173 c0 188 -15 277 -63 372 -33 63
-104 143 -165 182 -103 66 -281 111 -442 111 -240 1 -375 71 -450 233 -57 123
-79 324 -60 552 6 77 14 190 17 252 l6 112 -30 30 c-44 44 -86 48 -248 23 -77
-12 -158 -22 -179 -22 l-39 0 6 93 c11 156 65 334 170 563 190 412 305 635
412 800 384 588 853 950 1382 1066 80 17 133 22 288 22 105 1 228 -3 275 -7
73 -7 90 -6 119 10 52 27 74 64 79 130 3 48 0 64 -20 92 -33 49 -71 68 -161
80 -106 15 -402 12 -508 -4z"/>
<path d="M4019 5100 c-104 -8 -146 -29 -174 -85 -17 -34 -33 -46 -107 -83
-261 -128 -447 -443 -425 -722 9 -107 31 -172 93 -276 120 -199 171 -356 264
-809 34 -165 70 -319 81 -342 11 -23 40 -60 64 -82 l44 -41 -14 -34 c-20 -47
-19 -166 1 -214 36 -86 111 -133 225 -140 92 -5 165 13 235 60 87 58 127 179
93 278 -10 28 -9 34 7 43 45 25 105 93 138 157 56 106 84 188 136 405 65 265
78 300 161 427 209 321 280 625 210 901 -52 200 -204 377 -405 467 -161 73
-410 109 -627 90z m-105 -301 c45 -19 53 -20 159 -9 330 35 574 -65 674 -276
34 -72 37 -86 41 -189 4 -89 0 -127 -16 -192 -29 -115 -75 -219 -143 -325 -33
-51 -74 -122 -91 -158 -30 -64 -79 -239 -93 -332 l-7 -46 -62 -11 c-109 -18
-498 -72 -501 -69 -1 2 -17 71 -35 153 -57 266 -145 489 -266 677 -52 81 -74
142 -81 228 -12 154 83 361 219 472 46 38 137 98 149 98 3 0 28 -9 53 -21z
m289 -1829 c75 -13 137 -27 137 -30 0 -24 -52 -79 -94 -99 -87 -44 -230 -27
-283 32 -11 12 -27 49 -35 83 l-15 60 76 -11 c42 -7 138 -22 214 -35z"/>
</g>
</svg>
