<svg xmlns="http://www.w3.org/2000/svg" viewBox="0 0 100 100"><path d="m30.8 55.5 15.8 8.6-4.4 35.9-32.4-5-4.5-30.9 13.9-8.6L25 79.9l5.8-24.4zM26.3 0l21 8.5-3.6 41.2H33.427L30.6 55.5H19.4l-2.829-5.8H6.2L2.6 8.5 26.3 0zm-.7 13.2-15.1 3v28.2L25 37l14.5 7.4V16.2l-13.9-3zm3.2 19.7L25 37l-3.9-4.1h7.7zm5.1-9.3v4.1H16.1v-4.1h17.8zM85.8 0l11.5 12.4-1.6 41.2H83.462L80.6 59.4H69.4l-2.864-5.8H54.2l-1.6-41.2L62.8 4l23-4zm3.7 18.1-15.2 4-13.8-4-2 30.2h33l-2-30.2zM78.9 36.9l-3.9 4-3.8-4h7.7zm5-9.3v4.1H66.1v-4.1h17.8zm-3 31.8 1.2 11.4-7.1 4.9-7-4.9 1.3-11.4-15.9 7.7 1.4 32.8 37.4-3 4.5-30.8-15.8-6.7z"/></svg>