<svg xmlns="http://www.w3.org/2000/svg" viewBox="0 0 100 100"><path d="m30.4 0 14.3 14.4-4.6 41.2h-9.238L28 61.4H16.8l-2.864-5.8H4.6L0 14.4 30.4 0zm6.5 22.2h-29v28.1h29V22.2zM26.3 38.9l-3.9 4-3.9-4h7.8zm5-9.3v4.1H13.5v-4.1h17.8zm-3 31.8-5.9 11.4-5.7-11.4-14 8.7 3.5 27 33.4 3 2.5-30-13.8-8.7zm31.923-47.9 5.499 5.5L100 22.1l-34.282 3.015-5.495 5.497-8.504-8.504-.019-.008.008-.003-.041-.041 8.556-8.556zm.053 30.078 5.515 5.514L100 52.1l-34.137 3.002-5.587 5.587-8.555-8.556.017-.018-.038-.015.09-.037 8.486-8.485zm-.017 30.006 5.505 5.505L100 82.1l-34.242 3.097-5.499 5.5-8.556-8.557.027-.027-.03-.013.073-.03 8.486-8.486z"/></svg>