<?xml version="1.0" standalone="no"?>
<!DOCTYPE svg PUBLIC "-//W3C//DTD SVG 20010904//EN"
 "http://www.w3.org/TR/2001/REC-SVG-20010904/DTD/svg10.dtd">
<svg version="1.0" xmlns="http://www.w3.org/2000/svg"
 width="512.000000pt" height="512.000000pt" viewBox="0 0 512.000000 512.000000"
 preserveAspectRatio="xMidYMid meet">
<metadata>
Created by potrace 1.16, written by Peter Selinger 2001-2019
</metadata>
<g transform="translate(0.000000,512.000000) scale(0.100000,-0.100000)"
fill="#1C1B20" stroke="none">
<path d="M712 4940 c-18 -11 -41 -34 -52 -52 -20 -33 -20 -56 -20 -2328 0
-2272 0 -2295 20 -2328 11 -18 34 -41 52 -52 33 -20 55 -20 1848 -20 1793 0
1815 0 1848 20 18 11 41 34 52 52 20 33 20 56 20 2328 0 2272 0 2295 -20 2328
-11 18 -34 41 -52 52 -33 20 -55 20 -1848 20 -1793 0 -1815 0 -1848 -20z
m3448 -2380 l0 -2080 -1600 0 -1600 0 0 2080 0 2080 1600 0 1600 0 0 -2080z"/>
<path d="M1495 4301 c-49 -23 -99 -74 -119 -123 -31 -74 -15 -198 32 -252 14
-15 14 -20 3 -24 -29 -10 -95 -79 -112 -117 -16 -34 -19 -68 -19 -232 l0 -193
320 0 320 0 0 193 c0 164 -3 198 -19 232 -17 38 -83 107 -112 117 -11 4 -11 9
3 24 49 56 64 184 29 259 -23 49 -74 99 -123 119 -52 22 -153 20 -203 -3z"/>
<path d="M2240 3520 l0 -160 800 0 800 0 0 160 0 160 -800 0 -800 0 0 -160z"/>
<path d="M1280 2880 l0 -160 320 0 320 0 0 160 0 160 -320 0 -320 0 0 -160z"/>
<path d="M2240 2880 l0 -160 800 0 800 0 0 160 0 160 -800 0 -800 0 0 -160z"/>
<path d="M1280 2240 l0 -160 320 0 320 0 0 160 0 160 -320 0 -320 0 0 -160z"/>
<path d="M2240 2240 l0 -160 800 0 800 0 0 160 0 160 -800 0 -800 0 0 -160z"/>
<path d="M2240 1600 l0 -160 800 0 800 0 0 160 0 160 -800 0 -800 0 0 -160z"/>
<path d="M2240 960 l0 -160 800 0 800 0 0 160 0 160 -800 0 -800 0 0 -160z"/>
</g>
</svg>
