<?xml version="1.0" standalone="no"?>
<!DOCTYPE svg PUBLIC "-//W3C//DTD SVG 20010904//EN"
 "http://www.w3.org/TR/2001/REC-SVG-20010904/DTD/svg10.dtd">
<svg version="1.0" xmlns="http://www.w3.org/2000/svg"
 width="350.000000pt" height="350.000000pt" viewBox="0 0 350.000000 350.000000"
 preserveAspectRatio="xMidYMid meet">
<metadata>
Created by potrace 1.16, written by Peter Selinger 2001-2019
</metadata>
<g transform="translate(0.000000,350.000000) scale(0.100000,-0.100000)"
fill="#1C1B20" stroke="none">
<path d="M928 3220 c-100 -17 -225 -70 -318 -133 -144 -99 -254 -253 -312
-437 l-23 -75 0 -825 0 -825 23 -75 c87 -276 276 -465 552 -552 l75 -23 825 0
825 0 75 23 c276 87 465 276 552 552 l23 75 0 825 0 825 -23 75 c-86 274 -269
458 -547 551 l-70 24 -805 1 c-443 1 -826 -2 -852 -6z m1792 -535 c36 -37 33
-89 -8 -126 -18 -16 -41 -29 -53 -29 -56 0 -109 62 -95 112 20 76 101 98 156
43z m-795 -241 c246 -62 454 -272 521 -524 22 -87 22 -253 0 -340 -54 -204
-202 -385 -389 -474 -107 -51 -186 -69 -307 -69 -121 0 -200 18 -307 69 -187
89 -335 270 -389 474 -22 87 -22 253 0 340 88 335 401 566 736 543 41 -2 102
-11 135 -19z m-1340 -206 c3 -13 4 -131 3 -262 -3 -210 -5 -240 -20 -249 -12
-8 -21 -7 -32 2 -14 12 -16 47 -16 260 0 179 3 250 12 259 19 19 47 14 53 -10z"/>
</g>
</svg>
