<?xml version="1.0" standalone="no"?>
<!DOCTYPE svg PUBLIC "-//W3C//DTD SVG 20010904//EN"
 "http://www.w3.org/TR/2001/REC-SVG-20010904/DTD/svg10.dtd">
<svg version="1.0" xmlns="http://www.w3.org/2000/svg"
 width="300.000000pt" height="300.000000pt" viewBox="0 0 300.000000 300.000000"
 preserveAspectRatio="xMidYMid meet">
<metadata>
Created by potrace 1.16, written by Peter Selinger 2001-2019
</metadata>
<g transform="translate(0.000000,300.000000) scale(0.100000,-0.100000)"
fill="#1C1B20" stroke="none">
<path d="M544 2656 c-95 -31 -180 -119 -205 -210 -6 -23 -9 -75 -7 -116 7
-121 63 -206 170 -260 51 -25 73 -30 134 -30 135 0 238 59 291 168 24 50 28
68 28 147 0 74 -5 99 -24 137 -30 61 -89 120 -149 149 -58 27 -177 35 -238 15z"/>
<path d="M1917 1944 c-72 -17 -152 -55 -208 -98 l-44 -33 0 39 c-1 71 -6 73
-265 76 l-230 3 -25 -25 -25 -25 2 -762 c3 -740 4 -761 22 -775 16 -11 69 -14
261 -14 218 0 243 2 258 18 13 15 16 75 19 462 4 391 7 452 22 500 26 78 75
124 150 140 114 23 188 -9 230 -100 20 -43 21 -64 26 -518 5 -454 6 -474 24
-488 31 -22 498 -21 520 2 14 14 16 74 16 517 0 280 -5 533 -10 572 -42 294
-161 445 -396 505 -92 24 -258 26 -347 4z"/>
<path d="M403 1920 c-12 -5 -27 -18 -33 -29 -7 -14 -10 -248 -8 -776 3 -736 4
-757 22 -771 16 -11 69 -14 261 -14 222 0 243 2 258 18 16 17 17 85 17 778 0
640 -2 763 -14 780 -13 18 -30 19 -248 21 -128 1 -243 -2 -255 -7z"/>
</g>
</svg>
