<?xml version="1.0" encoding="UTF-8" standalone="no"?>
<!DOCTYPE svg PUBLIC "-//W3C//DTD SVG 1.1//EN" "http://www.w3.org/Graphics/SVG/1.1/DTD/svg11.dtd">
<svg xmlns="http://www.w3.org/2000/svg" version="1.1" viewBox="0.00 0.00 512.00 512.00">
<path fill="#FFFFFF" d="
  M 331.43 193.17
  C 329.91 208.20 311.77 214.29 301.16 203.92
  Q 289.09 192.11 275.64 178.57
  Q 270.57 173.47 266.83 171.62
  C 256.79 166.64 246.05 169.27 238.31 177.01
  Q 225.78 189.56 212.64 202.68
  Q 209.20 206.11 205.84 207.58
  C 191.13 214.03 175.59 199.45 181.88 184.36
  Q 183.37 180.78 188.14 176.10
  Q 215.18 149.54 243.17 121.41
  Q 247.03 117.53 249.96 116.43
  C 257.21 113.70 263.37 115.95 268.83 121.38
  Q 298.20 150.65 325.42 177.51
  Q 332.33 184.32 331.43 193.17
  Z"
/>
<path fill="#FFFFFF" d="
  M 328.91 311.26
  C 333.27 318.45 332.15 327.72 326.09 333.74
  Q 298.41 361.22 268.87 390.60
  Q 265.25 394.19 261.52 395.67
  C 255.39 398.09 248.85 396.21 244.28 391.64
  Q 215.78 363.14 185.93 333.61
  C 171.20 319.04 188.62 295.56 206.84 304.85
  Q 209.46 306.18 216.45 313.15
  Q 222.25 318.94 239.10 335.64
  C 249.08 345.54 263.58 345.17 273.66 335.32
  Q 285.71 323.54 299.47 309.59
  Q 302.70 306.32 305.95 304.69
  C 313.99 300.66 324.29 303.66 328.91 311.26
  Z"
/>
</svg>
