<svg width="1000" height="1000" viewBox="0 0 1000 1000" fill="none" xmlns="http://www.w3.org/2000/svg">
<rect width="1000" height="1000" fill="white"/>
<path d="M486.446 388.35C486.02 388.2 485.599 388.074 485.182 387.974C484.716 387.86 484.308 387.705 483.959 387.51C463.549 376.019 441.776 372.953 418.639 378.311" stroke="#5F2829" stroke-width="2"/>
<path d="M418.639 378.311C403.506 382.06 390.132 389.125 378.519 399.504C363.25 413.145 353.618 430.082 349.623 450.316C348.644 455.264 348.094 459.637 347.972 463.437C347.795 468.868 347.908 475.297 348.312 482.723" stroke="#551D1E" stroke-width="2"/>
<path d="M435.93 556.457V560.974C435.93 561.207 436.046 561.334 436.277 561.357L438.335 561.569C438.589 561.596 438.734 561.735 438.77 561.986C439.042 563.886 439.169 565.266 439.151 566.127C438.979 573.75 438.908 581.397 438.94 589.07C438.947 590.402 439.273 591.742 439.062 593.054C438.913 594.002 438.892 594.965 439.001 595.945C439.348 599.143 439.144 602.683 438.94 605.916C438.939 605.945 438.93 605.973 438.914 605.997C438.899 606.021 438.877 606.041 438.852 606.054C438.826 606.067 438.798 606.073 438.769 606.072C438.74 606.07 438.713 606.061 438.689 606.046C438.598 605.982 438.505 605.977 438.41 606.032C438.211 606.151 438.165 606.315 438.274 606.524C438.487 606.934 438.802 607.11 439.219 607.05C439.527 607.009 439.601 607.123 439.443 607.392L438.784 608.527C438.675 608.709 438.648 608.905 438.702 609.114L438.974 610.153C439 610.253 438.994 610.359 438.958 610.456C438.921 610.552 438.856 610.635 438.77 610.693L438.193 611.083C437.88 611.292 437.876 611.509 438.179 611.732C438.387 611.887 438.485 612.121 438.471 612.436" stroke="#5F0000" stroke-width="2"/>
<path d="M418.517 421.564C418.589 421.314 418.494 421.177 418.231 421.154C418.114 421.145 418.109 421.118 418.218 421.072C418.299 421.04 418.327 420.981 418.299 420.895C417.729 418.995 417.294 417.022 416.995 414.976C416.855 414.006 416.823 413.047 416.9 412.099C417.09 409.905 417.11 407.766 416.71 405.6C416.402 403.941 416.241 402.729 416.227 401.964C416.159 398.447 416.148 394.961 416.193 391.508C416.207 390.314 416.32 389.236 416.533 388.275C416.723 387.414 417.362 386.771 417.348 385.904C417.335 384.906 417.572 384.024 417.715 383.054C417.865 381.981 418.476 381.092 418.096 379.992C418.01 379.741 418.071 379.532 418.279 379.363C418.623 379.094 418.743 378.744 418.639 378.311" stroke="#454446" stroke-width="2"/>
<path d="M486.445 388.35C486.02 388.2 485.598 388.074 485.182 387.974C484.715 387.86 484.308 387.705 483.959 387.51C463.549 376.019 441.775 372.953 418.639 378.311C403.506 382.06 390.132 389.125 378.519 399.503C363.25 413.144 353.618 430.082 349.623 450.316C348.644 455.263 348.094 459.637 347.972 463.437C347.795 468.868 347.908 475.297 348.311 482.723C346.649 498.834 349.971 513.554 358.279 526.886C374.632 553.136 405.913 565.034 435.93 556.457V560.974C435.93 561.207 436.046 561.334 436.277 561.357L438.335 561.569C438.589 561.596 438.734 561.735 438.77 561.986C439.042 563.886 439.169 565.266 439.151 566.127C438.978 573.75 438.908 581.397 438.94 589.07C438.947 590.402 439.273 591.742 439.062 593.054C438.913 594.002 438.892 594.965 439.001 595.945C439.348 599.143 439.144 602.683 438.94 605.916C438.939 605.945 438.93 605.973 438.914 605.997C438.899 606.021 438.877 606.041 438.852 606.054C438.826 606.067 438.798 606.073 438.769 606.072C438.74 606.07 438.713 606.061 438.689 606.046C438.598 605.982 438.505 605.977 438.41 606.032C438.211 606.151 438.165 606.315 438.274 606.524C438.487 606.934 438.802 607.11 439.219 607.05C439.527 607.009 439.601 607.123 439.443 607.392L438.784 608.527C438.675 608.709 438.648 608.905 438.702 609.114L438.974 610.153C439 610.253 438.994 610.359 438.958 610.456C438.921 610.553 438.856 610.635 438.77 610.693L438.193 611.083C437.88 611.292 437.876 611.509 438.179 611.732C438.387 611.887 438.485 612.121 438.471 612.436C399.825 619.188 361.832 608.055 333.099 581.832C319.592 569.508 309.294 554.696 302.206 537.397C281.374 486.591 296.6 428.467 339.003 393.852C363.259 374.053 393.887 364.759 424.754 366.72C447.084 368.141 467.648 375.352 486.445 388.35Z" fill="#6F0000"/>
<path d="M486.445 388.35C498.648 396.774 509.251 406.848 518.256 418.571C525.598 428.13 532.168 438.174 537.966 448.703C538.12 448.985 538.036 449.126 537.715 449.126H471.627C471.401 449.126 471.217 449.038 471.077 448.86C457.724 431.888 440.204 422.79 418.516 421.564C418.589 421.314 418.494 421.177 418.231 421.154C418.113 421.145 418.109 421.118 418.217 421.072C418.299 421.04 418.326 420.981 418.299 420.894C417.728 418.995 417.293 417.022 416.994 414.976C416.854 414.006 416.822 413.047 416.899 412.099C417.09 409.905 417.11 407.766 416.709 405.6C416.401 403.941 416.24 402.729 416.227 401.964C416.159 398.446 416.147 394.961 416.193 391.508C416.206 390.314 416.32 389.236 416.532 388.275C416.723 387.414 417.361 386.771 417.348 385.903C417.334 384.906 417.572 384.024 417.715 383.054C417.864 381.981 418.476 381.092 418.095 379.992C418.009 379.741 418.07 379.532 418.279 379.363C418.623 379.094 418.743 378.744 418.639 378.311C441.775 372.953 463.549 376.019 483.959 387.51C484.307 387.705 484.715 387.86 485.182 387.974C485.598 388.074 486.02 388.2 486.445 388.35Z" fill="#4F4F51"/>
<path d="M418.639 378.311C418.743 378.744 418.623 379.094 418.279 379.363C418.07 379.532 418.009 379.741 418.095 379.992C418.476 381.092 417.864 381.981 417.715 383.054C417.572 384.024 417.334 384.906 417.348 385.904C417.362 386.771 416.723 387.414 416.533 388.275C416.32 389.236 416.207 390.314 416.193 391.508C416.148 394.961 416.159 398.447 416.227 401.964C416.241 402.729 416.401 403.941 416.709 405.6C417.11 407.766 417.09 409.905 416.9 412.099C416.823 413.047 416.854 414.006 416.995 414.976C417.294 417.022 417.728 418.995 418.299 420.895C418.326 420.981 418.299 421.04 418.218 421.072C418.109 421.118 418.114 421.145 418.231 421.154C418.494 421.177 418.589 421.314 418.517 421.564C401.445 421.355 386.561 426.335 373.865 436.504C359.33 448.136 350.812 463.542 348.312 482.723C347.908 475.297 347.795 468.868 347.972 463.437C348.094 459.637 348.644 455.264 349.623 450.316C353.618 430.082 363.25 413.145 378.519 399.504C390.132 389.125 403.506 382.06 418.639 378.311Z" fill="#3A393B"/>
<path d="M510.552 497.055L496.644 473.6C496.625 473.569 496.598 473.543 496.567 473.525C496.535 473.507 496.5 473.498 496.464 473.498C496.427 473.498 496.392 473.507 496.36 473.525C496.329 473.543 496.302 473.569 496.284 473.6L467.428 522.614C467.297 522.838 467.102 522.949 466.844 522.949L454.832 522.956C454.783 522.956 454.735 522.942 454.692 522.917C454.65 522.892 454.615 522.857 454.591 522.814C454.567 522.771 454.554 522.722 454.555 522.672C454.555 522.623 454.569 522.575 454.594 522.532C466.919 501.934 479.221 481.366 491.5 460.827C492.635 458.934 494.259 457.444 496.549 457.334C498.872 457.225 500.682 458.25 501.977 460.41C514.352 481.049 526.788 501.791 539.284 522.635C539.304 522.666 539.315 522.702 539.316 522.739C539.317 522.776 539.308 522.813 539.289 522.845C539.271 522.877 539.245 522.904 539.213 522.922C539.181 522.941 539.145 522.95 539.108 522.949L526.253 522.956C525.999 522.956 525.807 522.844 525.676 522.621L516.388 506.95C516.275 506.759 516.107 506.663 515.885 506.663L486.187 506.67C486.139 506.669 486.092 506.656 486.051 506.631C486.009 506.606 485.975 506.571 485.951 506.529C485.927 506.488 485.914 506.44 485.914 506.392C485.914 506.343 485.926 506.296 485.95 506.253L490.821 497.895C490.903 497.752 491.022 497.635 491.165 497.554C491.309 497.473 491.471 497.433 491.636 497.437C497.724 497.565 503.966 497.553 510.361 497.403C510.619 497.394 510.683 497.278 510.552 497.055Z" fill="#802427"/>
<path d="M556.868 476.203L556.882 522.505C556.882 522.797 556.734 522.942 556.44 522.942L546.541 522.949C546.255 522.949 546.113 522.806 546.113 522.519C546.144 504.021 546.147 484.473 546.12 463.875C546.113 458.018 552.065 455.168 556.243 459.33C571.15 474.178 586.305 489.277 601.71 504.627C601.741 504.658 601.78 504.68 601.823 504.689C601.866 504.698 601.91 504.693 601.95 504.677C601.991 504.66 602.025 504.631 602.049 504.594C602.073 504.557 602.085 504.514 602.084 504.47L602.077 457.997C602.077 457.783 602.184 457.676 602.396 457.676L612.479 457.655C612.737 457.651 612.866 457.778 612.866 458.038C612.875 477.803 612.873 497.626 612.86 517.509C612.86 523.619 606.541 525.806 602.417 521.644C587.927 507.028 572.88 491.824 557.276 476.033C557.004 475.759 556.868 475.816 556.868 476.203Z" fill="#802427"/>
<path d="M386.393 504.688C381.827 494.683 382.194 481.295 388.377 471.706C394.241 462.624 404.228 458.188 414.983 458.182C426.362 458.177 437.737 458.177 449.111 458.182C449.415 458.182 449.566 458.337 449.566 458.646L449.573 469.219C449.573 469.299 449.542 469.375 449.485 469.431C449.429 469.488 449.353 469.52 449.274 469.52C438.503 469.57 427.469 469.572 416.172 469.526C412.966 469.513 410.334 469.843 408.278 470.517C389.858 476.572 390.076 504.702 408.413 510.709C410.542 511.406 414.048 511.732 418.931 511.686C429.498 511.586 439.567 511.577 449.138 511.659C449.428 511.659 449.573 511.805 449.573 512.096V522.56C449.573 522.828 449.439 522.963 449.172 522.963C438.224 522.931 427.299 522.938 416.397 522.983C412.402 523.001 409.154 522.662 406.654 521.965C397.21 519.336 390.456 513.577 386.393 504.688Z" fill="#802427"/>
<path d="M635.369 458.188H624.702C624.525 458.188 624.382 458.332 624.382 458.51V522.628C624.382 522.805 624.525 522.949 624.702 522.949H635.369C635.545 522.949 635.688 522.805 635.688 522.628V458.51C635.688 458.332 635.545 458.188 635.369 458.188Z" fill="#4F4F51"/>
<path d="M667.73 469.561H643.875C643.794 469.561 643.716 469.528 643.659 469.47C643.602 469.413 643.569 469.335 643.569 469.253L643.576 458.476C643.576 458.394 643.608 458.316 643.666 458.258C643.723 458.2 643.801 458.168 643.882 458.168L703.515 458.175C703.596 458.175 703.674 458.207 703.731 458.265C703.789 458.323 703.821 458.401 703.821 458.482L703.828 469.253C703.828 469.293 703.82 469.333 703.804 469.371C703.789 469.408 703.766 469.442 703.738 469.47C703.71 469.499 703.676 469.522 703.639 469.537C703.602 469.553 703.562 469.561 703.522 469.561L679.681 469.547C679.6 469.547 679.522 469.579 679.465 469.637C679.407 469.695 679.375 469.773 679.375 469.854V522.655C679.375 522.737 679.343 522.815 679.286 522.873C679.228 522.93 679.15 522.963 679.069 522.963L668.334 522.942C668.253 522.942 668.176 522.91 668.118 522.852C668.061 522.794 668.029 522.716 668.029 522.635L668.035 469.868C668.035 469.828 668.028 469.788 668.012 469.75C667.997 469.713 667.974 469.679 667.946 469.651C667.918 469.622 667.884 469.599 667.847 469.584C667.81 469.568 667.77 469.561 667.73 469.561Z" fill="#4F4F51"/>
<path d="M438.471 612.436C438.485 612.121 438.387 611.887 438.179 611.732C437.876 611.509 437.88 611.292 438.193 611.083L438.77 610.693C438.856 610.635 438.921 610.553 438.958 610.456C438.994 610.359 439 610.253 438.974 610.153L438.702 609.114C438.648 608.905 438.675 608.709 438.784 608.527L439.443 607.392C439.601 607.123 439.527 607.01 439.219 607.051C438.802 607.11 438.487 606.934 438.274 606.524C438.165 606.315 438.211 606.151 438.41 606.032C438.505 605.978 438.598 605.982 438.689 606.046C438.713 606.062 438.74 606.071 438.769 606.072C438.798 606.073 438.826 606.067 438.852 606.054C438.877 606.041 438.899 606.021 438.914 605.997C438.93 605.973 438.939 605.945 438.94 605.916C439.144 602.683 439.348 599.143 439.001 595.945C438.892 594.965 438.913 594.002 439.062 593.054C439.273 591.742 438.947 590.402 438.94 589.07C438.908 581.397 438.979 573.75 439.151 566.127C439.169 565.266 439.042 563.886 438.77 561.986C438.734 561.735 438.589 561.596 438.335 561.569L436.277 561.357C436.046 561.334 435.93 561.207 435.93 560.975V556.457C448.35 552.653 458.849 545.976 467.428 536.426C467.516 536.327 467.623 536.248 467.743 536.194C467.862 536.14 467.991 536.112 468.121 536.112L533.312 536.098C533.341 536.098 533.368 536.104 533.394 536.115C533.421 536.126 533.444 536.142 533.464 536.163C533.483 536.183 533.499 536.207 533.509 536.234C533.519 536.26 533.524 536.288 533.523 536.317C533.518 536.472 533.475 536.615 533.394 536.747C524.534 551.195 514.596 564.453 503.581 576.522C499.975 580.472 496.023 584.35 491.725 588.154C488.463 591.043 484.813 593.731 480.772 596.218C467.768 604.219 453.668 609.625 438.471 612.436Z" fill="#4E0000"/>
</svg>
