<?xml version="1.0" standalone="no"?>
<!DOCTYPE svg PUBLIC "-//W3C//DTD SVG 20010904//EN"
 "http://www.w3.org/TR/2001/REC-SVG-20010904/DTD/svg10.dtd">
<svg version="1.0" xmlns="http://www.w3.org/2000/svg"
 width="512.000000pt" height="512.000000pt" viewBox="0 0 512.000000 512.000000"
 preserveAspectRatio="xMidYMid meet">

<g transform="translate(0.000000,512.000000) scale(0.100000,-0.100000)"
fill="#000000" stroke="none">
<path d="M1011 4778 c-198 -28 -374 -157 -467 -341 -54 -105 -61 -160 -73
-518 -20 -581 -56 -897 -182 -1594 -83 -457 -98 -561 -105 -710 -11 -227 27
-363 127 -457 110 -103 227 -112 524 -40 94 22 218 50 277 60 l107 19 6 -41
c3 -22 21 -205 40 -406 25 -256 40 -371 50 -387 19 -28 59 -39 90 -25 14 7
131 172 301 427 l279 416 51 -5 c28 -3 239 -40 470 -81 1399 -253 1707 -305
1800 -305 266 1 503 169 591 422 22 63 27 100 35 268 12 234 4 1467 -12 1840
-25 615 -36 749 -64 833 -34 101 -92 192 -170 264 -77 72 -130 104 -232 140
l-79 27 -580 7 c-635 8 -827 16 -1340 54 -387 30 -673 59 -1114 115 -129 17
-241 29 -250 29 -9 -1 -45 -6 -80 -11z m261 -163 c796 -112 1727 -175 2593
-176 467 -1 514 -6 617 -61 110 -58 204 -175 237 -293 13 -45 34 -406 53 -895
16 -426 16 -1772 0 -1855 -40 -202 -203 -359 -404 -388 -66 -9 -93 -7 -293 27
-312 52 -884 153 -1420 251 -253 46 -484 87 -512 91 -29 3 -53 10 -53 14 0 3
43 69 95 146 106 155 116 186 69 223 -34 27 -67 27 -97 -1 -14 -13 -181 -256
-373 -541 -191 -284 -349 -515 -352 -513 -2 3 -26 231 -53 507 -44 453 -50
505 -68 523 -29 29 -88 27 -112 -3 -22 -27 -22 -44 -6 -203 l13 -117 -71 -11
c-38 -6 -169 -35 -290 -63 -276 -64 -353 -68 -412 -21 -83 66 -113 191 -94
401 12 133 38 302 96 613 124 667 177 1140 191 1693 8 344 27 412 148 532 125
125 250 155 498 120z"/>
<path d="M4498 2540 c-27 -28 -30 -36 -24 -73 12 -86 18 -744 8 -890 -12 -171
-31 -227 -92 -262 -30 -17 -50 -20 -150 -18 -318 7 -620 58 -931 159 -102 33
-110 34 -137 20 -45 -23 -56 -72 -27 -114 29 -40 393 -142 650 -182 194 -30
517 -47 588 -31 79 17 145 64 185 131 40 67 51 108 63 225 10 107 12 659 2
865 -6 141 -7 146 -34 172 -36 36 -63 35 -101 -2z"/>
</g>
</svg>
