<svg width="1000" height="1000" viewBox="0 0 1000 1000" fill="none" xmlns="http://www.w3.org/2000/svg">
<rect width="1000" height="1000" fill="#1D1D1D"/>
<g clip-path="url(#clip0_228_44)">
<path d="M231.425 528.425C246.71 528.425 260.647 520.86 260.647 499.5C260.647 478.14 246.261 470.575 231.425 470.575H220.635V528.425H231.425ZM204 455.89H232.773C257.051 455.89 277.732 470.13 277.732 499.5C277.732 528.87 257.051 543.11 232.773 543.11H204V455.89Z" fill="white"/>
<path d="M382.934 480.365L368.547 524.865L354.161 480.365H338.425L361.354 543.11H376.19L399.119 480.365H382.934Z" fill="white"/>
<path d="M597.835 455H582.099V543.11H597.835V455Z" fill="white"/>
<path d="M712.479 455V543.11H728.663V522.64L735.857 515.52L755.638 543.11H774.521L746.647 505.285L772.723 480.365H752.491L728.663 502.615V455H712.479Z" fill="white"/>
<path d="M700.789 479.475C693.146 479.475 685.054 484.815 681.907 491.935V480.365H666.171V543.11H681.907V519.97C681.907 501.28 689.999 494.16 698.991 494.16C701.688 494.16 704.836 494.605 707.083 495.495V479.92C704.836 479.475 702.588 479.475 700.789 479.475Z" fill="white"/>
<path d="M643.692 515.965C643.692 525.31 637.848 532.43 628.406 532.43C622.562 532.43 618.965 529.315 618.965 524.865C618.965 520.415 623.011 516.855 631.553 515.965L643.692 514.63V515.965ZM631.104 479.475C617.616 479.475 606.377 487.485 604.578 499.945H618.965C620.314 494.605 624.81 491.49 631.104 491.49C638.747 491.49 643.692 495.94 643.692 503.06V503.505L632.003 504.84C613.12 506.62 603.679 513.295 603.679 525.755C603.679 536.435 612.221 544.445 624.81 544.445C632.453 544.445 640.095 540.44 643.692 534.21V543.11H658.978V504.84C658.978 488.375 647.738 479.475 631.104 479.475Z" fill="white"/>
<path d="M537.141 529.315C522.305 529.315 510.615 519.08 510.615 499.5C510.615 479.92 522.305 469.685 537.141 469.685C547.032 469.685 555.124 475.025 558.271 483.925H576.255C573.107 466.57 558.271 455 537.141 455C514.212 455 493.531 470.13 493.531 499.5C493.531 528.87 514.212 544 537.141 544C557.372 544 571.759 533.765 575.805 516.855H557.372C554.675 524.42 547.032 529.315 537.141 529.315Z" fill="white"/>
<path d="M412.606 504.395C414.405 495.94 419.8 491.49 427.892 491.49C436.884 491.49 441.829 497.275 442.728 504.395H412.606ZM427.892 479.475C406.762 479.475 396.421 495.495 396.421 511.96C396.421 528.425 407.661 544 428.791 544C443.628 544 454.867 536.88 458.014 525.31H441.38C439.132 528.87 434.636 530.65 428.791 530.65C419.8 530.65 413.506 524.865 412.157 515.52H458.913C458.913 514.185 459.363 511.515 459.363 509.29C459.813 495.05 449.023 479.475 427.892 479.475Z" fill="white"/>
<path d="M323.139 515.965C323.139 525.31 317.295 532.43 307.854 532.43C302.009 532.43 298.412 529.315 298.412 524.865C298.412 520.415 302.459 516.855 311.001 515.965L323.139 514.63V515.965ZM310.551 479.475C297.064 479.475 285.824 487.485 284.026 499.945H298.412C299.761 494.605 304.257 491.49 310.551 491.49C318.194 491.49 323.139 495.94 323.139 503.06V503.505L311.45 504.84C292.568 506.62 283.126 513.295 283.126 525.755C283.126 536.435 291.669 544.445 304.257 544.445C311.9 544.445 319.543 540.44 323.139 534.21V543.11H338.425V504.84C338.425 488.375 327.186 479.475 310.551 479.475Z" fill="white"/>
<path d="M787.559 543.11C793.021 543.11 797.45 538.727 797.45 533.32C797.45 527.913 793.021 523.53 787.559 523.53C782.096 523.53 777.668 527.913 777.668 533.32C777.668 538.727 782.096 543.11 787.559 543.11Z" fill="white"/>
</g>
<defs>
<clipPath id="clip0_228_44">
<rect width="593" height="89" fill="white" transform="translate(204 455)"/>
</clipPath>
</defs>
</svg>
