<svg width="1000" height="1000" viewBox="0 0 1000 1000" fill="none" xmlns="http://www.w3.org/2000/svg">
<rect width="1000" height="1000" fill="#1D1D1D"/>
<g clip-path="url(#clip0_228_44)">
<path d="M175.113 535.1C193.569 535.1 210.397 525.92 210.397 500C210.397 474.08 193.027 464.9 175.113 464.9H162.085V535.1H175.113ZM142 447.08H176.741C206.055 447.08 231.025 464.36 231.025 500C231.025 535.64 206.055 552.92 176.741 552.92H142V447.08Z" fill="white"/>
<path d="M358.048 476.78L340.678 530.78L323.307 476.78H304.308L331.992 552.92H349.906L377.59 476.78H358.048Z" fill="white"/>
<path d="M617.524 446H598.524V552.92H617.524V446Z" fill="white"/>
<path d="M755.947 446V552.92H775.489V528.08L784.174 519.44L808.059 552.92H830.858L797.202 507.02L828.687 476.78H804.259L775.489 503.78V446H755.947Z" fill="white"/>
<path d="M741.833 475.7C732.605 475.7 722.834 482.18 719.034 490.82V476.78H700.035V552.92H719.034V524.84C719.034 502.16 728.805 493.52 739.662 493.52C742.919 493.52 746.719 494.06 749.433 495.14V476.24C746.719 475.7 744.005 475.7 741.833 475.7Z" fill="white"/>
<path d="M672.893 519.98C672.893 531.32 665.836 539.96 654.437 539.96C647.38 539.96 643.037 536.18 643.037 530.78C643.037 525.38 647.922 521.06 658.236 519.98L672.893 518.36V519.98ZM657.694 475.7C641.408 475.7 627.838 485.42 625.666 500.54H643.037C644.665 494.06 650.094 490.28 657.694 490.28C666.922 490.28 672.893 495.68 672.893 504.32V504.86L658.779 506.48C635.98 508.64 624.581 516.74 624.581 531.86C624.581 544.82 634.894 554.54 650.094 554.54C659.322 554.54 668.55 549.68 672.893 542.12V552.92H691.349V506.48C691.349 486.5 677.778 475.7 657.694 475.7Z" fill="white"/>
<path d="M544.241 536.18C526.327 536.18 512.214 523.76 512.214 500C512.214 476.24 526.327 463.82 544.241 463.82C556.183 463.82 565.954 470.3 569.754 481.1H591.468C587.668 460.04 569.754 446 544.241 446C516.556 446 491.586 464.36 491.586 500C491.586 535.64 516.556 554 544.241 554C568.669 554 586.039 541.58 590.925 521.06H568.669C565.412 530.24 556.183 536.18 544.241 536.18Z" fill="white"/>
<path d="M393.876 505.94C396.047 495.68 402.561 490.28 412.332 490.28C423.189 490.28 429.16 497.3 430.246 505.94H393.876ZM412.332 475.7C386.819 475.7 374.333 495.14 374.333 515.12C374.333 535.1 387.904 554 413.418 554C431.331 554 444.902 545.36 448.702 531.32H428.617C425.903 535.64 420.475 537.8 413.418 537.8C402.561 537.8 394.961 530.78 393.333 519.44H449.788C449.788 517.82 450.33 514.58 450.33 511.88C450.873 494.6 437.845 475.7 412.332 475.7Z" fill="white"/>
<path d="M285.851 519.98C285.851 531.32 278.795 539.96 267.395 539.96C260.338 539.96 255.995 536.18 255.995 530.78C255.995 525.38 260.881 521.06 271.195 519.98L285.851 518.36V519.98ZM270.652 475.7C254.367 475.7 240.796 485.42 238.625 500.54H255.995C257.624 494.06 263.052 490.28 270.652 490.28C279.88 490.28 285.851 495.68 285.851 504.32V504.86L271.738 506.48C248.939 508.64 237.539 516.74 237.539 531.86C237.539 544.82 247.853 554.54 263.052 554.54C272.281 554.54 281.509 549.68 285.851 542.12V552.92H304.308V506.48C304.308 486.5 290.737 475.7 270.652 475.7Z" fill="white"/>
<path d="M846.601 552.92C853.196 552.92 858.543 547.601 858.543 541.04C858.543 534.479 853.196 529.16 846.601 529.16C840.005 529.16 834.658 534.479 834.658 541.04C834.658 547.601 840.005 552.92 846.601 552.92Z" fill="white"/>
</g>
<defs>
<clipPath id="clip0_228_44">
<rect width="716" height="108" fill="white" transform="translate(142 446)"/>
</clipPath>
</defs>
</svg>
