<?xml version="1.0" standalone="no"?>
<!DOCTYPE svg PUBLIC "-//W3C//DTD SVG 20010904//EN"
 "http://www.w3.org/TR/2001/REC-SVG-20010904/DTD/svg10.dtd">
<svg version="1.0" xmlns="http://www.w3.org/2000/svg"
 width="512.000000pt" height="512.000000pt" viewBox="0 0 512.000000 512.000000"
 preserveAspectRatio="xMidYMid meet">
<metadata>
Created by potrace 1.16, written by Peter Selinger 2001-2019
</metadata>
<g transform="translate(0.000000,512.000000) scale(0.100000,-0.100000)"
fill="#1C1B20" stroke="none">
<path d="M2340 4644 c-615 -74 -1114 -340 -1498 -799 -538 -642 -664 -1584
-314 -2340 221 -476 566 -836 1027 -1070 157 -80 282 -125 346 -125 42 0 55 5
80 29 l29 29 0 237 0 237 -22 -6 c-13 -3 -71 -11 -129 -18 -203 -23 -389 31
-503 145 -41 41 -67 82 -114 179 -68 140 -128 215 -237 293 -107 76 -97 121
27 112 129 -8 239 -89 358 -262 61 -88 127 -144 210 -177 81 -32 237 -31 339
3 l73 24 18 72 c23 86 50 142 95 192 41 45 43 51 11 51 -13 0 -63 7 -112 15
-592 102 -874 442 -874 1056 0 122 4 162 24 241 32 127 101 261 174 341 l26
27 -20 73 c-25 95 -26 292 0 387 40 150 40 150 164 127 125 -24 257 -82 425
-188 l58 -36 77 18 c300 72 663 72 963 1 l76 -19 79 49 c156 97 304 160 421
178 98 16 107 11 131 -73 27 -90 42 -185 42 -259 0 -57 -21 -183 -38 -228 -8
-20 -3 -32 34 -76 125 -154 184 -333 184 -561 0 -324 -84 -580 -247 -753 -155
-165 -352 -258 -648 -305 -60 -10 -112 -19 -114 -21 -2 -2 10 -19 28 -39 37
-42 72 -109 97 -185 15 -48 18 -108 23 -457 6 -392 7 -403 27 -423 50 -51 124
-42 311 39 244 105 467 255 667 450 198 194 327 372 447 616 106 217 168 417
206 665 24 158 24 472 0 630 -77 499 -284 910 -636 1261 -282 281 -592 464
-966 569 -203 57 -317 72 -565 75 -124 2 -241 1 -260 -1z"/>
</g>
</svg>
