<?xml version="1.0" standalone="no"?>
<!DOCTYPE svg PUBLIC "-//W3C//DTD SVG 20010904//EN"
 "http://www.w3.org/TR/2001/REC-SVG-20010904/DTD/svg10.dtd">
<svg version="1.0" xmlns="http://www.w3.org/2000/svg"
 width="512.000000pt" height="512.000000pt" viewBox="0 0 512.000000 512.000000"
 preserveAspectRatio="xMidYMid meet">
<metadata>
Created by potrace 1.16, written by Peter Selinger 2001-2019
</metadata>
<g transform="translate(0.000000,512.000000) scale(0.100000,-0.100000)"
fill="#000000" stroke="none">
<path d="M1800 4623 c-203 -30 -355 -107 -482 -242 -83 -89 -135 -171 -179
-286 -167 -432 -124 -1062 123 -1785 140 -411 168 -520 189 -737 19 -187 -4
-363 -67 -523 -59 -149 -198 -312 -324 -379 -79 -42 -90 -55 -90 -102 0 -50
27 -79 75 -79 19 0 117 16 217 35 1256 238 2171 820 2650 1685 126 227 227
540 259 804 16 134 6 394 -20 507 -43 187 -128 350 -232 443 -60 54 -187 119
-279 143 -85 21 -243 21 -335 -1 -225 -54 -469 -235 -694 -516 l-20 -25 6 125
c11 233 -28 465 -105 620 -26 54 -58 97 -112 151 -122 123 -247 170 -450 167
-58 0 -116 -2 -130 -5z m252 -164 c149 -31 264 -136 324 -295 73 -194 74 -564
3 -891 -18 -84 -19 -95 -5 -121 16 -32 34 -42 71 -42 42 0 53 11 122 122 286
463 617 728 908 728 296 0 487 -212 535 -593 37 -296 -40 -667 -210 -1007
-367 -737 -1105 -1283 -2119 -1569 -173 -49 -311 -80 -304 -67 4 6 25 36 48
67 188 256 240 628 149 1061 -25 118 -49 198 -163 533 -293 862 -274 1594 50
1906 140 135 398 208 591 168z"/>
<path d="M3742 3272 c-15 -15 -21 -47 -31 -148 -6 -71 -21 -169 -33 -219 -34
-145 -34 -160 -4 -189 31 -32 73 -34 109 -6 30 23 59 135 83 309 21 162 19
223 -9 249 -29 28 -89 30 -115 4z"/>
<path d="M3543 2476 c-11 -9 -40 -51 -63 -93 -198 -368 -542 -710 -958 -952
-82 -48 -99 -74 -82 -126 11 -33 44 -55 81 -55 24 0 126 58 266 152 355 237
656 560 837 898 50 92 56 126 29 159 -24 28 -81 37 -110 17z"/>
</g>
</svg>
