<svg width="1000" height="1000" viewBox="0 0 1000 1000" fill="none" xmlns="http://www.w3.org/2000/svg">
<rect width="1000" height="1000" fill="#1D1D1D"/>
<g clip-path="url(#clip0_228_45)">
<path d="M720.468 428.142H603.433C595.539 428.142 586.093 433.839 582.441 440.802L569.08 466.277L588.073 511.532C588.767 514.058 589.824 514.039 590.425 511.49C590.425 511.49 604.559 474.253 609.628 464.962C614.696 455.67 617.435 456.066 620.692 455.485C624.749 454.761 638.755 454.489 645.156 455.267C647.698 455.576 651.169 457.409 651.169 460.027V504.755C651.169 507.372 651.313 511.651 651.488 514.263C651.488 514.263 651.58 515.629 652.403 518.169C653.224 520.707 654.415 522.866 655.977 524.651C657.537 526.436 659.445 527.798 661.701 528.74C663.957 529.685 666.521 530.156 669.388 530.156C672.255 530.156 674.819 529.685 677.075 528.74C679.331 527.798 681.239 526.443 682.801 524.682C684.36 522.92 685.553 520.771 686.376 518.231C687.198 515.693 687.29 514.327 687.29 514.327C687.464 511.716 687.608 507.437 687.608 504.819V460.027C687.608 457.409 689.761 455.267 692.392 455.267H704.207C706.838 455.267 708.991 457.409 708.991 460.027V504.819C708.991 507.437 708.81 511.712 708.588 514.32C708.588 514.32 708.074 520.361 706.238 525.058C705.414 527.17 704.43 529.151 703.286 531C701.885 533.265 700.244 535.333 698.363 537.206C694.947 540.605 690.792 543.246 685.901 545.134C681.006 547.024 675.503 547.966 669.388 547.966C663.231 547.966 657.705 547.024 652.814 545.134C647.921 543.246 643.768 540.605 640.352 537.206C636.934 533.805 634.319 529.76 632.507 525.058C630.692 520.361 630.184 514.321 630.184 514.321C629.965 511.712 629.786 507.437 629.786 504.819V476.754C629.786 474.137 628.985 473.983 628.006 476.412L600.539 542.542C599.56 544.972 596.606 546.96 593.975 546.96H584.185C581.554 546.96 578.6 544.972 577.621 542.542L556.532 490.203L520.891 558.157C517.239 565.12 520.711 570.817 528.605 570.817H720.468C728.362 570.817 734.821 564.391 734.821 556.539V442.42C734.821 434.567 728.362 428.142 720.468 428.142Z" fill="#00B8AF"/>
<path fill-rule="evenodd" clip-rule="evenodd" d="M282.073 444.849C284.63 444.85 286.43 446.91 286.074 449.428L276.153 519.653C275.797 522.17 277.597 524.23 280.154 524.23H296.652C299.209 524.23 302.309 522.408 303.542 520.181L343.003 448.899C344.235 446.673 347.335 444.85 349.892 444.849H366.555C369.112 444.85 371.76 446.856 372.44 449.306L399.335 546.173C400.015 548.624 398.483 550.629 395.924 550.629H377.3C374.744 550.629 372.18 548.603 371.601 546.126L367.361 530.366C367.361 530.366 366.07 524.261 362.784 524.23H332.179C329.622 524.23 326.576 526.081 325.409 528.343L316.028 546.517C314.86 548.779 311.814 550.629 309.258 550.629H250.108C247.553 550.629 245.752 548.569 246.109 546.052L259.759 449.428C260.115 446.91 262.497 444.85 265.053 444.849H282.073ZM360.326 501.906C359.406 501.925 345.395 501.906 345.395 501.906C342.839 501.906 341.703 500.062 342.871 497.809L353.864 476.382C355.032 474.129 356.461 474.304 357.039 476.771L361.964 497.739C361.964 497.739 363.37 501.843 360.326 501.906Z" fill="white"/>
<path d="M557.863 448.948C559.047 446.694 557.924 444.85 555.368 444.85H536.983C534.428 444.85 531.37 446.695 530.189 448.95L498.494 511.798C497.312 514.053 497.022 513.891 496.346 511.438L479.235 449.309C478.56 446.857 475.915 444.85 473.36 444.85H455.193C452.638 444.85 451.114 446.853 451.807 449.301L458.389 472.522C459.082 474.97 461.017 479.968 459.684 482.138L439.846 513.087C438.513 515.256 436.46 513.803 435.784 511.351L418.693 449.309C418.018 446.857 415.374 444.85 412.818 444.85H394.925C392.37 444.85 390.8 446.865 391.438 449.327L416.527 546.153C417.165 548.616 419.777 550.63 422.334 550.63H439.271C441.827 550.63 445.009 548.855 446.342 546.686L465.36 515.737C466.693 513.567 468.324 513.802 468.985 516.259L477.027 546.164C477.687 548.62 480.319 550.63 482.876 550.63H499.813C502.368 550.63 505.428 548.786 506.612 546.532L557.863 448.948Z" fill="white"/>
</g>
<defs>
<clipPath id="clip0_228_45">
<rect width="489" height="143" fill="white" transform="translate(246 428)"/>
</clipPath>
</defs>
</svg>
