<?xml version="1.0" standalone="no"?>
<!DOCTYPE svg PUBLIC "-//W3C//DTD SVG 20010904//EN"
 "http://www.w3.org/TR/2001/REC-SVG-20010904/DTD/svg10.dtd">
<svg version="1.0" xmlns="http://www.w3.org/2000/svg"
 width="512.000000pt" height="512.000000pt" viewBox="0 0 512.000000 512.000000"
 preserveAspectRatio="xMidYMid meet">

<g transform="translate(0.000000,512.000000) scale(0.100000,-0.100000)"
fill="#000000" stroke="none">
<path d="M1985 4765 c-358 -57 -670 -261 -870 -570 -214 -328 -273 -703 -184
-1155 56 -282 214 -660 388 -925 81 -123 77 -113 55 -130 -314 -240 -700 -477
-1079 -661 -240 -116 -281 -156 -292 -286 -5 -51 -2 -66 26 -122 35 -71 77
-109 147 -133 80 -27 141 -15 300 60 402 191 818 442 1157 696 59 45 111 81
115 81 4 0 51 -33 105 -74 405 -303 1005 -487 1673 -511 82 -3 185 -8 230 -11
l81 -6 -69 -241 c-37 -133 -68 -253 -68 -267 0 -40 42 -113 79 -137 47 -32 98
-39 147 -21 23 8 291 193 597 412 499 356 558 401 576 439 26 55 27 99 1 153
-19 38 -81 85 -578 440 -306 219 -575 405 -597 413 -48 17 -99 10 -146 -22
-37 -24 -79 -97 -79 -137 0 -14 31 -135 69 -269 l69 -244 -217 6 c-596 17
-1063 140 -1397 369 l-72 49 263 262 c198 198 285 292 355 387 219 297 379
633 425 894 19 114 20 330 0 433 -63 329 -266 592 -569 734 -201 94 -431 128
-641 94z m305 -170 c201 -30 373 -115 510 -254 113 -115 171 -216 216 -377 22
-80 30 -313 14 -412 -41 -260 -216 -612 -449 -907 -80 -101 -412 -435 -584
-588 -364 -323 -736 -591 -1147 -827 -204 -117 -558 -290 -596 -290 -58 0
-101 69 -73 119 11 18 85 61 274 156 660 331 1189 717 1730 1259 279 279 403
442 528 691 127 253 152 346 151 560 0 146 -2 167 -27 240 -61 182 -164 299
-345 389 -110 56 -207 78 -342 79 -235 1 -429 -83 -616 -268 -150 -149 -233
-298 -281 -510 -26 -112 -23 -370 6 -515 53 -270 188 -597 341 -829 34 -51 58
-97 53 -101 -4 -3 -34 -28 -65 -54 l-57 -47 -55 78 c-60 85 -193 338 -249 473
-273 667 -205 1247 191 1638 128 125 303 228 464 272 150 41 260 48 408 25z
m16 -351 c198 -51 344 -198 383 -382 17 -83 13 -227 -9 -317 -46 -193 -193
-470 -357 -675 -74 -93 -286 -313 -427 -444 l-105 -98 -55 84 c-194 299 -336
723 -336 1003 0 159 47 340 121 467 45 77 147 190 218 242 92 68 221 121 336
139 47 8 168 -2 231 -19z m2118 -2589 c283 -203 515 -373 515 -377 1 -3 -237
-175 -529 -381 -291 -207 -530 -371 -530 -365 0 6 34 133 76 282 42 149 76
284 76 300 0 17 -11 39 -24 52 -22 22 -32 23 -318 33 -162 6 -356 18 -430 26
-418 48 -781 152 -1060 302 -141 76 -315 197 -305 213 3 4 31 31 63 59 l59 50
59 -43 c210 -152 479 -271 774 -341 268 -63 475 -86 840 -92 l295 -5 23 25
c13 13 24 38 24 53 0 22 -112 460 -148 578 -5 14 -3 16 9 10 9 -5 247 -175
531 -379z"/>
</g>
</svg>
