<?xml version="1.0" standalone="no"?>
<!DOCTYPE svg PUBLIC "-//W3C//DTD SVG 20010904//EN"
 "http://www.w3.org/TR/2001/REC-SVG-20010904/DTD/svg10.dtd">
<svg version="1.0" xmlns="http://www.w3.org/2000/svg"
 width="512.000000pt" height="512.000000pt" viewBox="0 0 512.000000 512.000000"
 preserveAspectRatio="xMidYMid meet">

<g transform="translate(0.000000,512.000000) scale(0.100000,-0.100000)"
fill="#000000" stroke="none">
<path d="M1270 5110 c-269 -15 -484 -77 -636 -181 -139 -95 -244 -259 -265
-414 -4 -33 -17 -116 -28 -185 -37 -223 -43 -543 -36 -1770 5 -797 3 -1254 -5
-1535 -14 -451 -9 -512 51 -634 58 -118 211 -257 353 -321 139 -63 161 -65
611 -65 451 1 463 2 513 60 66 75 43 187 -48 233 -44 21 -51 22 -165 12 -66
-5 -241 -12 -390 -16 -232 -6 -279 -4 -333 10 -145 37 -250 115 -304 224 l-33
67 -6 590 c-4 324 -12 703 -18 840 -51 1143 -75 2069 -56 2213 24 186 26 191
122 344 50 81 180 160 328 198 117 31 286 36 863 27 573 -9 603 -8 930 33 472
59 670 61 867 9 182 -47 351 -174 415 -311 62 -133 63 -145 56 -848 -7 -690
-9 -662 49 -678 41 -11 75 -1 96 28 16 23 19 78 33 565 22 750 22 783 -10 891
-93 325 -312 507 -700 584 -196 39 -407 45 -875 27 -325 -13 -446 -14 -519 -6
-119 14 -679 19 -860 9z"/>
<path d="M1130 3883 c-109 -57 -108 -222 2 -276 36 -18 47 -18 365 2 563 35
859 43 1338 37 248 -4 469 -8 493 -9 35 -1 47 4 72 29 42 42 48 89 18 134 -35
52 -81 64 -195 51 -123 -15 -323 -14 -831 4 -235 8 -578 19 -762 25 -184 6
-364 13 -400 16 -51 4 -73 1 -100 -13z"/>
<path d="M1160 3080 c-71 -17 -121 -111 -100 -189 13 -51 61 -98 106 -107 19
-3 70 -4 112 0 113 9 787 54 1002 66 102 6 383 14 624 17 410 6 440 7 457 24
24 24 24 74 1 97 -20 20 -23 20 -307 46 -269 25 -520 37 -1010 46 -559 11
-837 11 -885 0z"/>
<path d="M2355 2285 c-238 -27 -695 -57 -955 -62 l-264 -6 -28 -28 c-50 -50
-31 -153 34 -180 23 -9 54 -8 146 4 64 9 157 19 205 22 112 9 621 -11 834 -31
225 -22 294 -6 327 77 22 55 20 100 -6 139 -54 78 -96 87 -293 65z"/>
<path d="M4200 2245 c-159 -45 -320 -176 -820 -669 -555 -546 -543 -533 -590
-629 -45 -93 -138 -423 -199 -704 l-15 -72 24 -26 c14 -15 34 -25 52 -25 15 0
153 26 305 59 153 32 323 66 378 75 163 28 162 27 450 286 77 70 212 188 300
264 365 315 576 525 667 663 45 68 78 166 78 232 -1 118 -52 263 -128 358
-122 153 -337 234 -502 188z m144 -216 c126 -47 220 -199 201 -325 -5 -38 -19
-59 -81 -130 -42 -46 -80 -84 -86 -84 -6 0 -38 22 -72 48 -307 241 -386 305
-386 312 0 14 165 142 221 173 63 33 126 35 203 6z m-442 -417 c53 -70 132
-172 177 -227 45 -54 80 -101 79 -105 -2 -4 -86 -81 -188 -171 -102 -90 -280
-257 -396 -372 l-212 -208 -245 -64 c-135 -36 -251 -65 -257 -65 -6 0 -8 10
-5 23 41 191 79 339 106 412 l33 90 176 175 c97 96 276 280 399 408 122 127
226 232 230 232 5 0 51 -58 103 -128z"/>
</g>
</svg>
