<?xml version="1.0" standalone="no"?>
<!DOCTYPE svg PUBLIC "-//W3C//DTD SVG 20010904//EN"
 "http://www.w3.org/TR/2001/REC-SVG-20010904/DTD/svg10.dtd">
<svg version="1.0" xmlns="http://www.w3.org/2000/svg"
 width="512.000000pt" height="512.000000pt" viewBox="0 0 512.000000 512.000000"
 preserveAspectRatio="xMidYMid meet">

<g transform="translate(0.000000,512.000000) scale(0.100000,-0.100000)"
fill="#000000" stroke="none">
<path d="M2305 5113 c-558 -45 -1063 -242 -1450 -565 -105 -87 -289 -277 -312
-321 -11 -22 -14 -46 -10 -86 6 -55 5 -57 -52 -146 -220 -340 -358 -703 -417
-1090 -23 -151 -26 -542 -6 -680 90 -596 329 -1083 735 -1494 197 -200 402
-350 642 -471 689 -349 1485 -344 2243 15 217 104 262 142 262 225 0 85 -61
150 -141 150 -40 0 -71 -11 -169 -60 -752 -377 -1497 -409 -2145 -91 -534 262
-939 733 -1134 1320 -91 271 -126 520 -118 826 6 225 21 335 73 545 47 191
110 358 205 549 108 216 143 271 177 271 46 1 87 32 179 135 309 344 693 581
1112 685 765 192 1623 -76 2241 -699 410 -413 653 -929 688 -1461 17 -244 -13
-515 -82 -742 -65 -214 -187 -469 -316 -658 -48 -71 -56 -99 -37 -136 36 -70
109 -94 161 -53 68 53 225 337 301 544 47 126 97 327 121 480 23 147 26 548 6
690 -92 645 -352 1186 -772 1605 -409 409 -951 655 -1560 710 -106 9 -330 11
-425 3z"/>
<path d="M2013 3659 c-31 -16 -50 -62 -77 -183 -42 -183 -50 -320 -37 -642 14
-364 14 -882 0 -1050 -17 -207 -16 -229 4 -252 34 -37 115 -33 137 7 5 10 14
76 20 147 6 71 22 224 36 339 55 463 74 640 85 811 22 333 -13 770 -65 813
-21 17 -78 22 -103 10z"/>
<path d="M2992 3580 c-44 -27 -72 -76 -72 -126 0 -22 7 -87 14 -145 50 -357
75 -919 57 -1278 -6 -130 -18 -285 -26 -346 -20 -147 -19 -159 11 -194 32 -38
78 -48 128 -27 59 24 66 55 66 268 0 101 7 284 15 408 22 343 35 724 35 1048
0 329 -2 342 -69 388 -45 30 -112 32 -159 4z"/>
</g>
</svg>
