<?xml version="1.0" standalone="no"?>
<!DOCTYPE svg PUBLIC "-//W3C//DTD SVG 20010904//EN"
 "http://www.w3.org/TR/2001/REC-SVG-20010904/DTD/svg10.dtd">
<svg version="1.0" xmlns="http://www.w3.org/2000/svg"
 width="512.000000pt" height="512.000000pt" viewBox="0 0 512.000000 512.000000"
 preserveAspectRatio="xMidYMid meet">
<metadata>
Created by potrace 1.16, written by Peter Selinger 2001-2019
</metadata>
<g transform="translate(0.000000,512.000000) scale(0.100000,-0.100000)"
fill="#000000" stroke="none">
<path d="M1676 4202 c-121 -120 -340 -332 -486 -472 -146 -140 -302 -290 -347
-334 l-82 -80 35 115 c106 339 290 775 354 839 29 29 26 81 -5 110 -20 18 -31
22 -62 17 -51 -8 -81 -45 -148 -182 -182 -374 -382 -977 -361 -1090 9 -49 50
-78 99 -72 52 7 100 43 201 147 46 48 207 206 358 351 150 144 304 292 341
328 l68 66 -46 -99 c-143 -306 -293 -692 -446 -1145 -104 -310 -118 -388 -80
-428 15 -16 33 -23 57 -23 70 0 118 42 240 215 63 90 590 743 641 795 10 9 7
0 -5 -26 -11 -22 -81 -173 -155 -335 -74 -162 -159 -334 -187 -384 -131 -225
-183 -353 -184 -448 -1 -50 2 -62 23 -78 40 -33 89 -22 124 26 178 249 657
907 669 920 5 6 -7 -28 -27 -75 -148 -343 -385 -987 -385 -1046 0 -40 32 -74
71 -74 60 0 101 35 240 205 97 119 601 686 606 682 2 -2 -4 -24 -12 -48 -25
-70 -45 -175 -45 -237 0 -151 106 -371 280 -583 155 -189 360 -360 761 -636
143 -97 256 -180 251 -184 -6 -6 -214 -57 -422 -104 -101 -23 -136 -79 -89
-140 25 -31 35 -31 189 3 52 11 165 32 250 47 294 51 422 92 441 142 17 44 4
77 -78 212 -84 137 -146 264 -217 440 -61 153 -67 161 -116 161 -47 0 -80 -27
-80 -65 0 -35 101 -283 181 -442 l66 -132 -201 137 c-406 275 -566 400 -732
575 -147 154 -261 329 -309 476 -36 109 -8 235 104 480 31 69 82 190 111 269
53 141 54 144 40 185 -28 80 -100 72 -155 -17 -70 -113 -185 -253 -508 -617
-188 -213 -343 -386 -345 -384 -3 3 76 213 143 380 66 164 253 594 380 875 54
118 100 232 102 253 7 52 -16 77 -72 77 -37 0 -47 -5 -82 -42 -48 -53 -84
-105 -161 -235 -53 -90 -513 -734 -520 -729 -4 5 195 430 295 631 126 252 183
352 343 595 170 259 211 345 178 378 -23 23 -50 12 -108 -44 -56 -54 -84 -88
-237 -294 -39 -52 -140 -176 -225 -275 -84 -99 -319 -381 -521 -627 -203 -247
-370 -448 -372 -448 -9 0 133 399 220 620 168 424 244 585 366 776 132 206
156 285 101 337 -19 18 -39 27 -61 27 -30 0 -56 -22 -255 -218z"/>
</g>
</svg>
