<?xml version="1.0" standalone="no"?>
<!DOCTYPE svg PUBLIC "-//W3C//DTD SVG 20010904//EN"
 "http://www.w3.org/TR/2001/REC-SVG-20010904/DTD/svg10.dtd">
<svg version="1.0" xmlns="http://www.w3.org/2000/svg"
 width="512.000000pt" height="512.000000pt" viewBox="0 0 512.000000 512.000000"
 preserveAspectRatio="xMidYMid meet">

<g transform="translate(0.000000,512.000000) scale(0.100000,-0.100000)"
fill="#000000" stroke="none">
<path d="M1915 4460 c-286 -45 -459 -240 -574 -645 -39 -136 -83 -415 -66
-415 4 0 38 22 75 50 75 54 138 90 157 90 23 0 14 -37 -22 -90 -89 -132 -88
-301 3 -444 20 -30 32 -63 32 -83 0 -18 7 -78 15 -133 13 -90 13 -115 0 -243
-29 -269 -82 -533 -153 -772 -19 -62 -26 -72 -59 -90 -57 -31 -175 -127 -224
-184 -24 -28 -60 -78 -80 -110 -48 -80 -469 -1044 -469 -1075 0 -13 7 -27 16
-30 9 -3 910 -6 2004 -6 1814 0 1989 1 2001 16 11 14 1 80 -71 438 -93 467
-107 521 -157 617 -87 168 -273 329 -466 405 -27 10 -52 26 -57 35 -14 25
-105 396 -144 585 -65 317 -126 692 -156 959 -54 490 -198 898 -358 1016 -123
90 -346 108 -586 48 l-83 -21 -80 25 c-164 52 -374 76 -498 57z m564 -605 c37
-74 92 -129 196 -193 88 -54 98 -70 111 -174 l6 -53 -27 37 c-69 93 -213 151
-322 129 -122 -24 -212 -94 -264 -205 -91 -193 -9 -427 179 -514 81 -37 193
-38 273 0 108 50 184 147 208 269 9 44 17 59 37 68 13 6 28 19 32 29 10 26
124 126 166 146 80 38 137 6 173 -97 25 -73 24 -213 -2 -287 -35 -96 -117
-160 -205 -160 -24 0 -106 36 -142 62 -14 10 -22 10 -35 2 -43 -27 -16 -76 58
-109 l40 -18 -3 -507 -3 -508 -39 -56 c-75 -109 -191 -169 -331 -170 -107 -1
-173 22 -235 83 -67 64 -71 86 -68 356 l3 227 60 23 c141 53 279 137 348 214
39 44 44 60 25 79 -22 22 -45 12 -105 -45 -146 -141 -426 -244 -664 -244 -112
0 -155 14 -188 60 -52 73 -107 260 -141 479 l-17 114 21 -7 c122 -39 147 -41
223 -22 l52 14 -6 -42 c-8 -64 17 -109 81 -140 70 -34 137 -43 159 -20 37 36
20 54 -67 72 -65 14 -96 35 -96 68 0 12 21 61 47 111 85 163 94 184 105 245
19 111 -19 234 -99 320 -47 50 -93 80 -162 104 l-35 12 70 17 c128 32 188 69
313 190 62 61 136 140 164 175 l51 64 13 -69 c7 -38 26 -96 42 -129z m-632
-340 c31 -9 67 -31 94 -56 29 -26 33 -33 14 -20 -51 34 -118 47 -171 33 -83
-22 -132 -73 -104 -107 17 -20 37 -19 70 5 55 39 135 35 175 -10 22 -25 61
-26 74 -2 9 15 12 15 21 2 22 -33 32 -121 21 -182 -35 -200 -232 -303 -398
-208 l-50 29 -7 129 c-4 71 -4 175 0 230 l7 102 35 22 c79 49 137 57 219 33z
m763 -15 c51 -26 103 -81 132 -138 18 -38 23 -64 23 -132 0 -73 -4 -92 -27
-135 -37 -71 -104 -130 -169 -149 -66 -20 -82 -20 -148 0 -144 42 -231 216
-186 370 15 51 18 56 26 37 11 -29 37 -29 85 -1 48 28 137 29 182 2 36 -20 64
-12 70 20 14 68 -165 105 -274 57 l-49 -22 41 42 c77 77 199 97 294 49z m-404
-1767 c11 -60 48 -125 98 -171 161 -148 456 -126 625 46 31 32 67 82 81 111
l25 53 270 -5 c222 -4 285 -9 356 -25 299 -70 518 -230 626 -457 31 -65 47
-134 119 -492 46 -229 84 -420 84 -425 0 -4 -702 -8 -1559 -8 l-1559 0 -11 33
c-20 60 -33 180 -26 236 16 141 66 250 161 350 73 78 82 113 32 119 -21 3 -38
-9 -85 -57 -73 -74 -126 -164 -157 -261 -39 -124 -42 -230 -10 -387 l7 -33
-317 0 c-174 0 -316 2 -316 4 0 10 395 906 421 956 102 192 315 345 572 411
109 28 197 36 389 38 l167 1 7 -37z"/>
<path d="M3030 3242 c-46 -23 -91 -89 -97 -144 -4 -37 -1 -49 22 -76 33 -39
80 -50 123 -28 37 19 52 44 52 84 0 39 -31 78 -54 69 -14 -6 -17 -14 -11 -45
5 -29 2 -42 -10 -52 -23 -19 -65 2 -65 32 0 30 33 83 65 104 21 14 30 14 55 4
62 -26 87 25 26 54 -43 20 -63 20 -106 -2z"/>
<path d="M2265 2624 c-55 -31 -126 -57 -232 -84 -24 -6 -43 -17 -43 -24 0 -24
80 -59 149 -63 58 -4 73 -1 121 24 43 22 60 38 78 73 25 49 26 104 2 106 -8 1
-42 -13 -75 -32z"/>
<path d="M1791 3274 c-40 -50 -13 -154 39 -154 59 0 92 100 50 153 -27 35 -62
35 -89 1z"/>
<path d="M2386 3281 c-42 -47 -23 -144 31 -157 61 -16 101 102 53 154 -25 27
-61 28 -84 3z"/>
</g>
</svg>
